<mxfile host="Electron" modified="2023-07-28T05:55:27.690Z" agent="Mozilla/5.0 (Macintosh; Intel Mac OS X 10_15_7) AppleWebKit/537.36 (KHTML, like Gecko) draw.io/21.6.5 Chrome/114.0.5735.243 Electron/25.3.1 Safari/537.36" etag="Gg0Cv3fpSKE2b598fWE1" version="21.6.5" type="device">
  <diagram name="Page-1" id="DyquLoCqnv8UFfpNbI6D">
    <mxGraphModel dx="2206" dy="1203" grid="1" gridSize="10" guides="1" tooltips="1" connect="1" arrows="1" fold="1" page="1" pageScale="1" pageWidth="1240" pageHeight="630" math="0" shadow="0">
      <root>
        <mxCell id="0" />
        <mxCell id="1" parent="0" />
        <mxCell id="2W-PBRkv51gdTkOP3Wb2-12" value="store_mgr" style="swimlane;fontStyle=1;align=center;verticalAlign=top;childLayout=stackLayout;horizontal=1;startSize=30;horizontalStack=0;resizeParent=1;resizeParentMax=0;resizeLast=0;collapsible=0;marginBottom=0;whiteSpace=wrap;html=1;" parent="1" vertex="1">
          <mxGeometry x="40" y="660" width="380" height="400" as="geometry" />
        </mxCell>
        <mxCell id="2W-PBRkv51gdTkOP3Wb2-13" value="* SM_FileHandle: { char, int, int, void }" style="text;strokeColor=none;fillColor=none;align=left;verticalAlign=middle;spacingLeft=4;spacingRight=4;overflow=hidden;rotatable=0;points=[[0,0.5],[1,0.5]];portConstraint=eastwest;whiteSpace=wrap;html=1;fontSize=11;" parent="2W-PBRkv51gdTkOP3Wb2-12" vertex="1">
          <mxGeometry y="30" width="380" height="20" as="geometry" />
        </mxCell>
        <mxCell id="2W-PBRkv51gdTkOP3Wb2-26" value="* SM_PageHandle: char" style="text;strokeColor=none;fillColor=none;align=left;verticalAlign=middle;spacingLeft=4;spacingRight=4;overflow=hidden;rotatable=0;points=[[0,0.5],[1,0.5]];portConstraint=eastwest;whiteSpace=wrap;html=1;fontSize=11;" parent="2W-PBRkv51gdTkOP3Wb2-12" vertex="1">
          <mxGeometry y="50" width="380" height="20" as="geometry" />
        </mxCell>
        <mxCell id="2W-PBRkv51gdTkOP3Wb2-25" value="" style="line;strokeWidth=1;fillColor=none;align=left;verticalAlign=middle;spacingTop=0;spacingLeft=0;spacingRight=0;rotatable=0;labelPosition=right;points=[];portConstraint=eastwest;strokeColor=inherit;spacing=0;" parent="2W-PBRkv51gdTkOP3Wb2-12" vertex="1">
          <mxGeometry y="70" width="380" height="10" as="geometry" />
        </mxCell>
        <mxCell id="2W-PBRkv51gdTkOP3Wb2-17" value="+ initStorageManager(void): void" style="text;strokeColor=none;fillColor=none;align=left;verticalAlign=middle;spacingLeft=4;spacingRight=4;overflow=hidden;rotatable=0;points=[[0,0.5],[1,0.5]];portConstraint=eastwest;whiteSpace=wrap;html=1;fontSize=11;" parent="2W-PBRkv51gdTkOP3Wb2-12" vertex="1">
          <mxGeometry y="80" width="380" height="20" as="geometry" />
        </mxCell>
        <mxCell id="2W-PBRkv51gdTkOP3Wb2-16" value="+ createPageFile(char): RC" style="text;strokeColor=none;fillColor=none;align=left;verticalAlign=middle;spacingLeft=4;spacingRight=4;overflow=hidden;rotatable=0;points=[[0,0.5],[1,0.5]];portConstraint=eastwest;whiteSpace=wrap;html=1;fontSize=11;" parent="2W-PBRkv51gdTkOP3Wb2-12" vertex="1">
          <mxGeometry y="100" width="380" height="20" as="geometry" />
        </mxCell>
        <mxCell id="2W-PBRkv51gdTkOP3Wb2-18" value="+ openPageFile(char, SM_FileHandle): RC" style="text;strokeColor=none;fillColor=none;align=left;verticalAlign=middle;spacingLeft=4;spacingRight=4;overflow=hidden;rotatable=0;points=[[0,0.5],[1,0.5]];portConstraint=eastwest;whiteSpace=wrap;html=1;fontSize=11;" parent="2W-PBRkv51gdTkOP3Wb2-12" vertex="1">
          <mxGeometry y="120" width="380" height="20" as="geometry" />
        </mxCell>
        <mxCell id="2W-PBRkv51gdTkOP3Wb2-19" value="+ closePageFile(SM_FileHandle): RC" style="text;strokeColor=none;fillColor=none;align=left;verticalAlign=middle;spacingLeft=4;spacingRight=4;overflow=hidden;rotatable=0;points=[[0,0.5],[1,0.5]];portConstraint=eastwest;whiteSpace=wrap;html=1;fontSize=11;" parent="2W-PBRkv51gdTkOP3Wb2-12" vertex="1">
          <mxGeometry y="140" width="380" height="20" as="geometry" />
        </mxCell>
        <mxCell id="2W-PBRkv51gdTkOP3Wb2-20" value="+ destroyPageFile(char): RC" style="text;strokeColor=none;fillColor=none;align=left;verticalAlign=middle;spacingLeft=4;spacingRight=4;overflow=hidden;rotatable=0;points=[[0,0.5],[1,0.5]];portConstraint=eastwest;whiteSpace=wrap;html=1;fontSize=11;" parent="2W-PBRkv51gdTkOP3Wb2-12" vertex="1">
          <mxGeometry y="160" width="380" height="20" as="geometry" />
        </mxCell>
        <mxCell id="2W-PBRkv51gdTkOP3Wb2-22" value="+ readBlock(int, SM_FileHandle, SM_PageHandle): RC" style="text;strokeColor=none;fillColor=none;align=left;verticalAlign=middle;spacingLeft=4;spacingRight=4;overflow=hidden;rotatable=0;points=[[0,0.5],[1,0.5]];portConstraint=eastwest;whiteSpace=wrap;html=1;fontSize=11;" parent="2W-PBRkv51gdTkOP3Wb2-12" vertex="1">
          <mxGeometry y="180" width="380" height="20" as="geometry" />
        </mxCell>
        <mxCell id="2W-PBRkv51gdTkOP3Wb2-21" value="+ getBlockPos(SM_FileHandle): int" style="text;strokeColor=none;fillColor=none;align=left;verticalAlign=middle;spacingLeft=4;spacingRight=4;overflow=hidden;rotatable=0;points=[[0,0.5],[1,0.5]];portConstraint=eastwest;whiteSpace=wrap;html=1;fontSize=11;" parent="2W-PBRkv51gdTkOP3Wb2-12" vertex="1">
          <mxGeometry y="200" width="380" height="20" as="geometry" />
        </mxCell>
        <mxCell id="2W-PBRkv51gdTkOP3Wb2-23" value="+ readFirstBlock(SM_FileHandle, SM_PageHandle): RC" style="text;strokeColor=none;fillColor=none;align=left;verticalAlign=middle;spacingLeft=4;spacingRight=4;overflow=hidden;rotatable=0;points=[[0,0.5],[1,0.5]];portConstraint=eastwest;whiteSpace=wrap;html=1;fontSize=11;" parent="2W-PBRkv51gdTkOP3Wb2-12" vertex="1">
          <mxGeometry y="220" width="380" height="20" as="geometry" />
        </mxCell>
        <mxCell id="2W-PBRkv51gdTkOP3Wb2-41" value="+ readPreviousBlock(SM_FileHandle, SM_PageHandle): RC" style="text;strokeColor=none;fillColor=none;align=left;verticalAlign=middle;spacingLeft=4;spacingRight=4;overflow=hidden;rotatable=0;points=[[0,0.5],[1,0.5]];portConstraint=eastwest;whiteSpace=wrap;html=1;fontSize=11;" parent="2W-PBRkv51gdTkOP3Wb2-12" vertex="1">
          <mxGeometry y="240" width="380" height="20" as="geometry" />
        </mxCell>
        <mxCell id="2W-PBRkv51gdTkOP3Wb2-42" value="+ readCurrentBlock(SM_FileHandle, SM_PageHandle): RC" style="text;strokeColor=none;fillColor=none;align=left;verticalAlign=middle;spacingLeft=4;spacingRight=4;overflow=hidden;rotatable=0;points=[[0,0.5],[1,0.5]];portConstraint=eastwest;whiteSpace=wrap;html=1;fontSize=11;" parent="2W-PBRkv51gdTkOP3Wb2-12" vertex="1">
          <mxGeometry y="260" width="380" height="20" as="geometry" />
        </mxCell>
        <mxCell id="2W-PBRkv51gdTkOP3Wb2-43" value="+ readNextBlock(SM_FileHandle, SM_PageHandle): RC" style="text;strokeColor=none;fillColor=none;align=left;verticalAlign=middle;spacingLeft=4;spacingRight=4;overflow=hidden;rotatable=0;points=[[0,0.5],[1,0.5]];portConstraint=eastwest;whiteSpace=wrap;html=1;fontSize=11;" parent="2W-PBRkv51gdTkOP3Wb2-12" vertex="1">
          <mxGeometry y="280" width="380" height="20" as="geometry" />
        </mxCell>
        <mxCell id="2W-PBRkv51gdTkOP3Wb2-60" value="+ readLastBlock(SM_FileHandle, SM_PageHandle): RC" style="text;strokeColor=none;fillColor=none;align=left;verticalAlign=middle;spacingLeft=4;spacingRight=4;overflow=hidden;rotatable=0;points=[[0,0.5],[1,0.5]];portConstraint=eastwest;whiteSpace=wrap;html=1;fontSize=11;" parent="2W-PBRkv51gdTkOP3Wb2-12" vertex="1">
          <mxGeometry y="300" width="380" height="20" as="geometry" />
        </mxCell>
        <mxCell id="2W-PBRkv51gdTkOP3Wb2-61" value="+ writeBlock(int, SM_FileHandle, SM_PageHandle): RC" style="text;strokeColor=none;fillColor=none;align=left;verticalAlign=middle;spacingLeft=4;spacingRight=4;overflow=hidden;rotatable=0;points=[[0,0.5],[1,0.5]];portConstraint=eastwest;whiteSpace=wrap;html=1;fontSize=11;" parent="2W-PBRkv51gdTkOP3Wb2-12" vertex="1">
          <mxGeometry y="320" width="380" height="20" as="geometry" />
        </mxCell>
        <mxCell id="2W-PBRkv51gdTkOP3Wb2-59" value="+ writeCurrentBlock(SM_FileHandle, SM_PageHandle): RC" style="text;strokeColor=none;fillColor=none;align=left;verticalAlign=middle;spacingLeft=4;spacingRight=4;overflow=hidden;rotatable=0;points=[[0,0.5],[1,0.5]];portConstraint=eastwest;whiteSpace=wrap;html=1;fontSize=11;" parent="2W-PBRkv51gdTkOP3Wb2-12" vertex="1">
          <mxGeometry y="340" width="380" height="20" as="geometry" />
        </mxCell>
        <mxCell id="2W-PBRkv51gdTkOP3Wb2-62" value="+ appendEmptyBlock(SM_FileHandle): RC" style="text;strokeColor=none;fillColor=none;align=left;verticalAlign=middle;spacingLeft=4;spacingRight=4;overflow=hidden;rotatable=0;points=[[0,0.5],[1,0.5]];portConstraint=eastwest;whiteSpace=wrap;html=1;fontSize=11;" parent="2W-PBRkv51gdTkOP3Wb2-12" vertex="1">
          <mxGeometry y="360" width="380" height="20" as="geometry" />
        </mxCell>
        <mxCell id="2W-PBRkv51gdTkOP3Wb2-63" value="+ ensureCapacity(int, SM_FileHandle): RC" style="text;strokeColor=none;fillColor=none;align=left;verticalAlign=middle;spacingLeft=4;spacingRight=4;overflow=hidden;rotatable=0;points=[[0,0.5],[1,0.5]];portConstraint=eastwest;whiteSpace=wrap;html=1;fontSize=11;" parent="2W-PBRkv51gdTkOP3Wb2-12" vertex="1">
          <mxGeometry y="380" width="380" height="20" as="geometry" />
        </mxCell>
        <mxCell id="2W-PBRkv51gdTkOP3Wb2-27" value="dberror" style="swimlane;fontStyle=1;align=center;verticalAlign=top;childLayout=stackLayout;horizontal=1;startSize=30;horizontalStack=0;resizeParent=1;resizeParentMax=0;resizeLast=0;collapsible=0;marginBottom=0;whiteSpace=wrap;html=1;" parent="1" vertex="1">
          <mxGeometry x="40" y="1101" width="380" height="130" as="geometry" />
        </mxCell>
        <mxCell id="2W-PBRkv51gdTkOP3Wb2-28" value="* RC: int" style="text;strokeColor=none;fillColor=none;align=left;verticalAlign=middle;spacingLeft=4;spacingRight=4;overflow=hidden;rotatable=0;points=[[0,0.5],[1,0.5]];portConstraint=eastwest;whiteSpace=wrap;html=1;fontSize=11;" parent="2W-PBRkv51gdTkOP3Wb2-27" vertex="1">
          <mxGeometry y="30" width="380" height="20" as="geometry" />
        </mxCell>
        <mxCell id="2W-PBRkv51gdTkOP3Wb2-30" value="" style="line;strokeWidth=1;fillColor=none;align=left;verticalAlign=middle;spacingTop=0;spacingLeft=0;spacingRight=0;rotatable=0;labelPosition=right;points=[];portConstraint=eastwest;strokeColor=inherit;spacing=0;" parent="2W-PBRkv51gdTkOP3Wb2-27" vertex="1">
          <mxGeometry y="50" width="380" height="10" as="geometry" />
        </mxCell>
        <mxCell id="2W-PBRkv51gdTkOP3Wb2-31" value="- RC_message: char" style="text;strokeColor=none;fillColor=none;align=left;verticalAlign=middle;spacingLeft=4;spacingRight=4;overflow=hidden;rotatable=0;points=[[0,0.5],[1,0.5]];portConstraint=eastwest;whiteSpace=wrap;html=1;fontSize=11;" parent="2W-PBRkv51gdTkOP3Wb2-27" vertex="1">
          <mxGeometry y="60" width="380" height="20" as="geometry" />
        </mxCell>
        <mxCell id="2W-PBRkv51gdTkOP3Wb2-32" value="" style="line;strokeWidth=1;fillColor=none;align=left;verticalAlign=middle;spacingTop=0;spacingLeft=0;spacingRight=0;rotatable=0;labelPosition=right;points=[];portConstraint=eastwest;strokeColor=inherit;spacing=0;" parent="2W-PBRkv51gdTkOP3Wb2-27" vertex="1">
          <mxGeometry y="80" width="380" height="10" as="geometry" />
        </mxCell>
        <mxCell id="2W-PBRkv51gdTkOP3Wb2-33" value="+ printError(RC): void" style="text;strokeColor=none;fillColor=none;align=left;verticalAlign=middle;spacingLeft=4;spacingRight=4;overflow=hidden;rotatable=0;points=[[0,0.5],[1,0.5]];portConstraint=eastwest;whiteSpace=wrap;html=1;fontSize=11;" parent="2W-PBRkv51gdTkOP3Wb2-27" vertex="1">
          <mxGeometry y="90" width="380" height="20" as="geometry" />
        </mxCell>
        <mxCell id="2W-PBRkv51gdTkOP3Wb2-34" value="+ errorMessage(RC): char" style="text;strokeColor=none;fillColor=none;align=left;verticalAlign=middle;spacingLeft=4;spacingRight=4;overflow=hidden;rotatable=0;points=[[0,0.5],[1,0.5]];portConstraint=eastwest;whiteSpace=wrap;html=1;fontSize=11;" parent="2W-PBRkv51gdTkOP3Wb2-27" vertex="1">
          <mxGeometry y="110" width="380" height="20" as="geometry" />
        </mxCell>
        <mxCell id="2W-PBRkv51gdTkOP3Wb2-64" value="test_assign3_1" style="swimlane;fontStyle=1;align=center;verticalAlign=top;childLayout=stackLayout;horizontal=1;startSize=30;horizontalStack=0;resizeParent=1;resizeParentMax=0;resizeLast=0;collapsible=0;marginBottom=0;whiteSpace=wrap;html=1;" parent="1" vertex="1">
          <mxGeometry x="920" y="39" width="260" height="310" as="geometry" />
        </mxCell>
        <mxCell id="2W-PBRkv51gdTkOP3Wb2-67" value="* TestRecord: { int, char, int }" style="text;strokeColor=none;fillColor=none;align=left;verticalAlign=middle;spacingLeft=4;spacingRight=4;overflow=hidden;rotatable=0;points=[[0,0.5],[1,0.5]];portConstraint=eastwest;whiteSpace=wrap;html=1;fontSize=11;" parent="2W-PBRkv51gdTkOP3Wb2-64" vertex="1">
          <mxGeometry y="30" width="260" height="20" as="geometry" />
        </mxCell>
        <mxCell id="m3RcvuXCGORG72tY1Eil-10" value="" style="line;strokeWidth=1;fillColor=none;align=left;verticalAlign=middle;spacingTop=0;spacingLeft=0;spacingRight=0;rotatable=0;labelPosition=right;points=[];portConstraint=eastwest;strokeColor=inherit;spacing=0;" vertex="1" parent="2W-PBRkv51gdTkOP3Wb2-64">
          <mxGeometry y="50" width="260" height="10" as="geometry" />
        </mxCell>
        <mxCell id="m3RcvuXCGORG72tY1Eil-9" value="- testName: char" style="text;strokeColor=none;fillColor=none;align=left;verticalAlign=middle;spacingLeft=4;spacingRight=4;overflow=hidden;rotatable=0;points=[[0,0.5],[1,0.5]];portConstraint=eastwest;whiteSpace=wrap;html=1;fontSize=11;" vertex="1" parent="2W-PBRkv51gdTkOP3Wb2-64">
          <mxGeometry y="60" width="260" height="20" as="geometry" />
        </mxCell>
        <mxCell id="2W-PBRkv51gdTkOP3Wb2-68" value="" style="line;strokeWidth=1;fillColor=none;align=left;verticalAlign=middle;spacingTop=0;spacingLeft=0;spacingRight=0;rotatable=0;labelPosition=right;points=[];portConstraint=eastwest;strokeColor=inherit;spacing=0;" parent="2W-PBRkv51gdTkOP3Wb2-64" vertex="1">
          <mxGeometry y="80" width="260" height="10" as="geometry" />
        </mxCell>
        <mxCell id="2W-PBRkv51gdTkOP3Wb2-79" style="edgeStyle=orthogonalEdgeStyle;rounded=0;orthogonalLoop=1;jettySize=auto;html=1;exitX=1;exitY=0.5;exitDx=0;exitDy=0;entryX=1;entryY=0.5;entryDx=0;entryDy=0;" parent="2W-PBRkv51gdTkOP3Wb2-64" source="2W-PBRkv51gdTkOP3Wb2-69" target="2W-PBRkv51gdTkOP3Wb2-71" edge="1">
          <mxGeometry relative="1" as="geometry" />
        </mxCell>
        <mxCell id="LyubAiNVPV_jIJJPJGrE-27" style="edgeStyle=orthogonalEdgeStyle;rounded=0;orthogonalLoop=1;jettySize=auto;html=1;exitX=1;exitY=0.5;exitDx=0;exitDy=0;entryX=1;entryY=0.5;entryDx=0;entryDy=0;" parent="2W-PBRkv51gdTkOP3Wb2-64" source="2W-PBRkv51gdTkOP3Wb2-69" target="LyubAiNVPV_jIJJPJGrE-25" edge="1">
          <mxGeometry relative="1" as="geometry" />
        </mxCell>
        <mxCell id="LyubAiNVPV_jIJJPJGrE-28" style="edgeStyle=orthogonalEdgeStyle;rounded=0;orthogonalLoop=1;jettySize=auto;html=1;exitX=1;exitY=0.5;exitDx=0;exitDy=0;entryX=1;entryY=0.5;entryDx=0;entryDy=0;" parent="2W-PBRkv51gdTkOP3Wb2-64" source="2W-PBRkv51gdTkOP3Wb2-69" target="LyubAiNVPV_jIJJPJGrE-26" edge="1">
          <mxGeometry relative="1" as="geometry" />
        </mxCell>
        <mxCell id="m3RcvuXCGORG72tY1Eil-2" style="edgeStyle=orthogonalEdgeStyle;rounded=0;orthogonalLoop=1;jettySize=auto;html=1;exitX=1;exitY=0.5;exitDx=0;exitDy=0;entryX=1;entryY=0.5;entryDx=0;entryDy=0;" edge="1" parent="2W-PBRkv51gdTkOP3Wb2-64" source="2W-PBRkv51gdTkOP3Wb2-69" target="Ri6osJwRoKcSnOSPko2Z-1">
          <mxGeometry relative="1" as="geometry" />
        </mxCell>
        <mxCell id="m3RcvuXCGORG72tY1Eil-3" style="edgeStyle=orthogonalEdgeStyle;rounded=0;orthogonalLoop=1;jettySize=auto;html=1;exitX=1;exitY=0.5;exitDx=0;exitDy=0;entryX=1;entryY=0.5;entryDx=0;entryDy=0;" edge="1" parent="2W-PBRkv51gdTkOP3Wb2-64" source="2W-PBRkv51gdTkOP3Wb2-69" target="6TKqkTE9r3XJfxrBiwmd-1">
          <mxGeometry relative="1" as="geometry" />
        </mxCell>
        <mxCell id="m3RcvuXCGORG72tY1Eil-4" style="edgeStyle=orthogonalEdgeStyle;rounded=0;orthogonalLoop=1;jettySize=auto;html=1;exitX=1;exitY=0.5;exitDx=0;exitDy=0;entryX=1;entryY=0.5;entryDx=0;entryDy=0;" edge="1" parent="2W-PBRkv51gdTkOP3Wb2-64" source="2W-PBRkv51gdTkOP3Wb2-69" target="m3RcvuXCGORG72tY1Eil-1">
          <mxGeometry relative="1" as="geometry" />
        </mxCell>
        <mxCell id="m3RcvuXCGORG72tY1Eil-33" style="edgeStyle=orthogonalEdgeStyle;rounded=0;orthogonalLoop=1;jettySize=auto;html=1;exitX=1;exitY=0.5;exitDx=0;exitDy=0;entryX=1;entryY=0.5;entryDx=0;entryDy=0;" edge="1" parent="2W-PBRkv51gdTkOP3Wb2-64" source="2W-PBRkv51gdTkOP3Wb2-69" target="2W-PBRkv51gdTkOP3Wb2-70">
          <mxGeometry relative="1" as="geometry">
            <Array as="points">
              <mxPoint x="280" y="100" />
              <mxPoint x="280" y="120" />
            </Array>
          </mxGeometry>
        </mxCell>
        <mxCell id="2W-PBRkv51gdTkOP3Wb2-69" value="+ main(): int" style="text;strokeColor=none;fillColor=none;align=left;verticalAlign=middle;spacingLeft=4;spacingRight=4;overflow=hidden;rotatable=0;points=[[0,0.5],[1,0.5]];portConstraint=eastwest;whiteSpace=wrap;html=1;fontSize=11;fontStyle=1" parent="2W-PBRkv51gdTkOP3Wb2-64" vertex="1">
          <mxGeometry y="90" width="260" height="20" as="geometry" />
        </mxCell>
        <mxCell id="2W-PBRkv51gdTkOP3Wb2-70" value="+&amp;nbsp;testInsertManyRecords&lt;span style=&quot;background-color: initial;&quot;&gt;(): void&lt;/span&gt;" style="text;strokeColor=none;fillColor=none;align=left;verticalAlign=middle;spacingLeft=4;spacingRight=4;overflow=hidden;rotatable=0;points=[[0,0.5],[1,0.5]];portConstraint=eastwest;whiteSpace=wrap;html=1;fontSize=11;" parent="2W-PBRkv51gdTkOP3Wb2-64" vertex="1">
          <mxGeometry y="110" width="260" height="20" as="geometry" />
        </mxCell>
        <mxCell id="2W-PBRkv51gdTkOP3Wb2-71" value="+&amp;nbsp;testCreateTableAndInsert&lt;span style=&quot;background-color: initial;&quot;&gt;(): void&lt;/span&gt;" style="text;strokeColor=none;fillColor=none;align=left;verticalAlign=middle;spacingLeft=4;spacingRight=4;overflow=hidden;rotatable=0;points=[[0,0.5],[1,0.5]];portConstraint=eastwest;whiteSpace=wrap;html=1;fontSize=11;" parent="2W-PBRkv51gdTkOP3Wb2-64" vertex="1">
          <mxGeometry y="130" width="260" height="20" as="geometry" />
        </mxCell>
        <mxCell id="LyubAiNVPV_jIJJPJGrE-26" value="+&amp;nbsp;testUpdateTable&lt;span style=&quot;background-color: initial;&quot;&gt;(): void&lt;/span&gt;" style="text;strokeColor=none;fillColor=none;align=left;verticalAlign=middle;spacingLeft=4;spacingRight=4;overflow=hidden;rotatable=0;points=[[0,0.5],[1,0.5]];portConstraint=eastwest;whiteSpace=wrap;html=1;fontSize=11;" parent="2W-PBRkv51gdTkOP3Wb2-64" vertex="1">
          <mxGeometry y="150" width="260" height="20" as="geometry" />
        </mxCell>
        <mxCell id="Ri6osJwRoKcSnOSPko2Z-1" value="+&amp;nbsp;testScans&lt;span style=&quot;background-color: initial;&quot;&gt;(): void&lt;/span&gt;" style="text;strokeColor=none;fillColor=none;align=left;verticalAlign=middle;spacingLeft=4;spacingRight=4;overflow=hidden;rotatable=0;points=[[0,0.5],[1,0.5]];portConstraint=eastwest;whiteSpace=wrap;html=1;fontSize=11;" parent="2W-PBRkv51gdTkOP3Wb2-64" vertex="1">
          <mxGeometry y="170" width="260" height="20" as="geometry" />
        </mxCell>
        <mxCell id="6TKqkTE9r3XJfxrBiwmd-1" value="+&amp;nbsp;testScansTwo&lt;span style=&quot;background-color: initial;&quot;&gt;(): void&lt;/span&gt;" style="text;strokeColor=none;fillColor=none;align=left;verticalAlign=middle;spacingLeft=4;spacingRight=4;overflow=hidden;rotatable=0;points=[[0,0.5],[1,0.5]];portConstraint=eastwest;whiteSpace=wrap;html=1;fontSize=11;" parent="2W-PBRkv51gdTkOP3Wb2-64" vertex="1">
          <mxGeometry y="190" width="260" height="20" as="geometry" />
        </mxCell>
        <mxCell id="m3RcvuXCGORG72tY1Eil-1" value="+&amp;nbsp;testMultipleScans&lt;span style=&quot;background-color: initial;&quot;&gt;(): void&lt;/span&gt;" style="text;strokeColor=none;fillColor=none;align=left;verticalAlign=middle;spacingLeft=4;spacingRight=4;overflow=hidden;rotatable=0;points=[[0,0.5],[1,0.5]];portConstraint=eastwest;whiteSpace=wrap;html=1;fontSize=11;" vertex="1" parent="2W-PBRkv51gdTkOP3Wb2-64">
          <mxGeometry y="210" width="260" height="20" as="geometry" />
        </mxCell>
        <mxCell id="LyubAiNVPV_jIJJPJGrE-25" value="+&amp;nbsp;testRecords&lt;span style=&quot;background-color: initial;&quot;&gt;(): void&lt;/span&gt;" style="text;strokeColor=none;fillColor=none;align=left;verticalAlign=middle;spacingLeft=4;spacingRight=4;overflow=hidden;rotatable=0;points=[[0,0.5],[1,0.5]];portConstraint=eastwest;whiteSpace=wrap;html=1;fontSize=11;" parent="2W-PBRkv51gdTkOP3Wb2-64" vertex="1">
          <mxGeometry y="230" width="260" height="20" as="geometry" />
        </mxCell>
        <mxCell id="m3RcvuXCGORG72tY1Eil-6" value="+&amp;nbsp;testSchema(): Schema" style="text;strokeColor=none;fillColor=none;align=left;verticalAlign=middle;spacingLeft=4;spacingRight=4;overflow=hidden;rotatable=0;points=[[0,0.5],[1,0.5]];portConstraint=eastwest;whiteSpace=wrap;html=1;fontSize=11;" vertex="1" parent="2W-PBRkv51gdTkOP3Wb2-64">
          <mxGeometry y="250" width="260" height="20" as="geometry" />
        </mxCell>
        <mxCell id="m3RcvuXCGORG72tY1Eil-8" value="+&amp;nbsp;testRecord(Schema, int, char, int): Record" style="text;strokeColor=none;fillColor=none;align=left;verticalAlign=middle;spacingLeft=4;spacingRight=4;overflow=hidden;rotatable=0;points=[[0,0.5],[1,0.5]];portConstraint=eastwest;whiteSpace=wrap;html=1;fontSize=11;" vertex="1" parent="2W-PBRkv51gdTkOP3Wb2-64">
          <mxGeometry y="270" width="260" height="20" as="geometry" />
        </mxCell>
        <mxCell id="m3RcvuXCGORG72tY1Eil-7" value="+ fromTestRecord(Schema, TestRecord): Record" style="text;strokeColor=none;fillColor=none;align=left;verticalAlign=middle;spacingLeft=4;spacingRight=4;overflow=hidden;rotatable=0;points=[[0,0.5],[1,0.5]];portConstraint=eastwest;whiteSpace=wrap;html=1;fontSize=11;" vertex="1" parent="2W-PBRkv51gdTkOP3Wb2-64">
          <mxGeometry y="290" width="260" height="20" as="geometry" />
        </mxCell>
        <mxCell id="LyubAiNVPV_jIJJPJGrE-1" value="buffer_mgr" style="swimlane;fontStyle=1;align=center;verticalAlign=top;childLayout=stackLayout;horizontal=1;startSize=30;horizontalStack=0;resizeParent=1;resizeParentMax=0;resizeLast=0;collapsible=0;marginBottom=0;whiteSpace=wrap;html=1;" parent="1" vertex="1">
          <mxGeometry x="40" y="39" width="380" height="400" as="geometry" />
        </mxCell>
        <mxCell id="LyubAiNVPV_jIJJPJGrE-22" value="* ReplacementStrategy: enum" style="text;strokeColor=none;fillColor=none;align=left;verticalAlign=middle;spacingLeft=4;spacingRight=4;overflow=hidden;rotatable=0;points=[[0,0.5],[1,0.5]];portConstraint=eastwest;whiteSpace=wrap;html=1;fontSize=11;" parent="LyubAiNVPV_jIJJPJGrE-1" vertex="1">
          <mxGeometry y="30" width="380" height="20" as="geometry" />
        </mxCell>
        <mxCell id="LyubAiNVPV_jIJJPJGrE-21" value="* PageNumber: int" style="text;strokeColor=none;fillColor=none;align=left;verticalAlign=middle;spacingLeft=4;spacingRight=4;overflow=hidden;rotatable=0;points=[[0,0.5],[1,0.5]];portConstraint=eastwest;whiteSpace=wrap;html=1;fontSize=11;" parent="LyubAiNVPV_jIJJPJGrE-1" vertex="1">
          <mxGeometry y="50" width="380" height="20" as="geometry" />
        </mxCell>
        <mxCell id="LyubAiNVPV_jIJJPJGrE-2" value="*&amp;nbsp;BM_BufferPool&lt;span style=&quot;background-color: initial;&quot;&gt;: { char, int, ReplacementStrategy, void }&lt;/span&gt;" style="text;strokeColor=none;fillColor=none;align=left;verticalAlign=middle;spacingLeft=4;spacingRight=4;overflow=hidden;rotatable=0;points=[[0,0.5],[1,0.5]];portConstraint=eastwest;whiteSpace=wrap;html=1;fontSize=11;" parent="LyubAiNVPV_jIJJPJGrE-1" vertex="1">
          <mxGeometry y="70" width="380" height="20" as="geometry" />
        </mxCell>
        <mxCell id="LyubAiNVPV_jIJJPJGrE-3" value="* BM_PageHandle: { PageNumber, char }" style="text;strokeColor=none;fillColor=none;align=left;verticalAlign=middle;spacingLeft=4;spacingRight=4;overflow=hidden;rotatable=0;points=[[0,0.5],[1,0.5]];portConstraint=eastwest;whiteSpace=wrap;html=1;fontSize=11;" parent="LyubAiNVPV_jIJJPJGrE-1" vertex="1">
          <mxGeometry y="90" width="380" height="20" as="geometry" />
        </mxCell>
        <mxCell id="LyubAiNVPV_jIJJPJGrE-23" value="* Frame: { PageNumber, int, int, char, Frame, Frame }" style="text;strokeColor=none;fillColor=none;align=left;verticalAlign=middle;spacingLeft=4;spacingRight=4;overflow=hidden;rotatable=0;points=[[0,0.5],[1,0.5]];portConstraint=eastwest;whiteSpace=wrap;html=1;fontSize=11;" parent="LyubAiNVPV_jIJJPJGrE-1" vertex="1">
          <mxGeometry y="110" width="380" height="20" as="geometry" />
        </mxCell>
        <mxCell id="LyubAiNVPV_jIJJPJGrE-24" value="* PageCache: { int, int, Frame, Frame, int, int }" style="text;strokeColor=none;fillColor=none;align=left;verticalAlign=middle;spacingLeft=4;spacingRight=4;overflow=hidden;rotatable=0;points=[[0,0.5],[1,0.5]];portConstraint=eastwest;whiteSpace=wrap;html=1;fontSize=11;" parent="LyubAiNVPV_jIJJPJGrE-1" vertex="1">
          <mxGeometry y="130" width="380" height="20" as="geometry" />
        </mxCell>
        <mxCell id="LyubAiNVPV_jIJJPJGrE-4" value="" style="line;strokeWidth=1;fillColor=none;align=left;verticalAlign=middle;spacingTop=0;spacingLeft=0;spacingRight=0;rotatable=0;labelPosition=right;points=[];portConstraint=eastwest;strokeColor=inherit;spacing=0;" parent="LyubAiNVPV_jIJJPJGrE-1" vertex="1">
          <mxGeometry y="150" width="380" height="10" as="geometry" />
        </mxCell>
        <mxCell id="LyubAiNVPV_jIJJPJGrE-5" value="+&amp;nbsp;initBufferPool&lt;span style=&quot;background-color: initial;&quot;&gt;(BM_BufferPool, char, int, ReplacementStrategy, void): RC&lt;/span&gt;" style="text;strokeColor=none;fillColor=none;align=left;verticalAlign=middle;spacingLeft=4;spacingRight=4;overflow=hidden;rotatable=0;points=[[0,0.5],[1,0.5]];portConstraint=eastwest;whiteSpace=wrap;html=1;fontSize=11;" parent="LyubAiNVPV_jIJJPJGrE-1" vertex="1">
          <mxGeometry y="160" width="380" height="20" as="geometry" />
        </mxCell>
        <mxCell id="LyubAiNVPV_jIJJPJGrE-6" value="+ shutdownBufferPool(BM_BufferPool): RC" style="text;strokeColor=none;fillColor=none;align=left;verticalAlign=middle;spacingLeft=4;spacingRight=4;overflow=hidden;rotatable=0;points=[[0,0.5],[1,0.5]];portConstraint=eastwest;whiteSpace=wrap;html=1;fontSize=11;" parent="LyubAiNVPV_jIJJPJGrE-1" vertex="1">
          <mxGeometry y="180" width="380" height="20" as="geometry" />
        </mxCell>
        <mxCell id="LyubAiNVPV_jIJJPJGrE-7" value="+ forceFlushPool(BM_BufferPool): RC" style="text;strokeColor=none;fillColor=none;align=left;verticalAlign=middle;spacingLeft=4;spacingRight=4;overflow=hidden;rotatable=0;points=[[0,0.5],[1,0.5]];portConstraint=eastwest;whiteSpace=wrap;html=1;fontSize=11;" parent="LyubAiNVPV_jIJJPJGrE-1" vertex="1">
          <mxGeometry y="200" width="380" height="20" as="geometry" />
        </mxCell>
        <mxCell id="LyubAiNVPV_jIJJPJGrE-8" value="+ markDirty(BM_BufferPool, BM_PageHandle): RC" style="text;strokeColor=none;fillColor=none;align=left;verticalAlign=middle;spacingLeft=4;spacingRight=4;overflow=hidden;rotatable=0;points=[[0,0.5],[1,0.5]];portConstraint=eastwest;whiteSpace=wrap;html=1;fontSize=11;" parent="LyubAiNVPV_jIJJPJGrE-1" vertex="1">
          <mxGeometry y="220" width="380" height="20" as="geometry" />
        </mxCell>
        <mxCell id="LyubAiNVPV_jIJJPJGrE-9" value="+ unpinPage(BM_BufferPool, BM_PageHandle): RC" style="text;strokeColor=none;fillColor=none;align=left;verticalAlign=middle;spacingLeft=4;spacingRight=4;overflow=hidden;rotatable=0;points=[[0,0.5],[1,0.5]];portConstraint=eastwest;whiteSpace=wrap;html=1;fontSize=11;" parent="LyubAiNVPV_jIJJPJGrE-1" vertex="1">
          <mxGeometry y="240" width="380" height="20" as="geometry" />
        </mxCell>
        <mxCell id="LyubAiNVPV_jIJJPJGrE-10" value="+ forcePage(BM_BufferPool, BM_PageHandle): RC" style="text;strokeColor=none;fillColor=none;align=left;verticalAlign=middle;spacingLeft=4;spacingRight=4;overflow=hidden;rotatable=0;points=[[0,0.5],[1,0.5]];portConstraint=eastwest;whiteSpace=wrap;html=1;fontSize=11;" parent="LyubAiNVPV_jIJJPJGrE-1" vertex="1">
          <mxGeometry y="260" width="380" height="20" as="geometry" />
        </mxCell>
        <mxCell id="LyubAiNVPV_jIJJPJGrE-11" value="+ pinPage(BM_BufferPool, BM_PageHandle): RC" style="text;strokeColor=none;fillColor=none;align=left;verticalAlign=middle;spacingLeft=4;spacingRight=4;overflow=hidden;rotatable=0;points=[[0,0.5],[1,0.5]];portConstraint=eastwest;whiteSpace=wrap;html=1;fontSize=11;" parent="LyubAiNVPV_jIJJPJGrE-1" vertex="1">
          <mxGeometry y="280" width="380" height="20" as="geometry" />
        </mxCell>
        <mxCell id="LyubAiNVPV_jIJJPJGrE-12" value="+ getFrameContents(BM_BufferPool): PageNumber" style="text;strokeColor=none;fillColor=none;align=left;verticalAlign=middle;spacingLeft=4;spacingRight=4;overflow=hidden;rotatable=0;points=[[0,0.5],[1,0.5]];portConstraint=eastwest;whiteSpace=wrap;html=1;fontSize=11;" parent="LyubAiNVPV_jIJJPJGrE-1" vertex="1">
          <mxGeometry y="300" width="380" height="20" as="geometry" />
        </mxCell>
        <mxCell id="LyubAiNVPV_jIJJPJGrE-13" value="+ getDirtyFlags(BM_BufferPool): int" style="text;strokeColor=none;fillColor=none;align=left;verticalAlign=middle;spacingLeft=4;spacingRight=4;overflow=hidden;rotatable=0;points=[[0,0.5],[1,0.5]];portConstraint=eastwest;whiteSpace=wrap;html=1;fontSize=11;" parent="LyubAiNVPV_jIJJPJGrE-1" vertex="1">
          <mxGeometry y="320" width="380" height="20" as="geometry" />
        </mxCell>
        <mxCell id="LyubAiNVPV_jIJJPJGrE-14" value="+ getFixCounts(BM_BufferPool): int" style="text;strokeColor=none;fillColor=none;align=left;verticalAlign=middle;spacingLeft=4;spacingRight=4;overflow=hidden;rotatable=0;points=[[0,0.5],[1,0.5]];portConstraint=eastwest;whiteSpace=wrap;html=1;fontSize=11;" parent="LyubAiNVPV_jIJJPJGrE-1" vertex="1">
          <mxGeometry y="340" width="380" height="20" as="geometry" />
        </mxCell>
        <mxCell id="LyubAiNVPV_jIJJPJGrE-15" value="+ getNumReadIO(BM_BufferPool): int" style="text;strokeColor=none;fillColor=none;align=left;verticalAlign=middle;spacingLeft=4;spacingRight=4;overflow=hidden;rotatable=0;points=[[0,0.5],[1,0.5]];portConstraint=eastwest;whiteSpace=wrap;html=1;fontSize=11;" parent="LyubAiNVPV_jIJJPJGrE-1" vertex="1">
          <mxGeometry y="360" width="380" height="20" as="geometry" />
        </mxCell>
        <mxCell id="LyubAiNVPV_jIJJPJGrE-16" value="+ getNumWriteIO(BM_BufferPool): int" style="text;strokeColor=none;fillColor=none;align=left;verticalAlign=middle;spacingLeft=4;spacingRight=4;overflow=hidden;rotatable=0;points=[[0,0.5],[1,0.5]];portConstraint=eastwest;whiteSpace=wrap;html=1;fontSize=11;" parent="LyubAiNVPV_jIJJPJGrE-1" vertex="1">
          <mxGeometry y="380" width="380" height="20" as="geometry" />
        </mxCell>
        <mxCell id="LyubAiNVPV_jIJJPJGrE-29" value="test_expr" style="swimlane;fontStyle=1;align=center;verticalAlign=top;childLayout=stackLayout;horizontal=1;startSize=30;horizontalStack=0;resizeParent=1;resizeParentMax=0;resizeLast=0;collapsible=0;marginBottom=0;whiteSpace=wrap;html=1;" parent="1" vertex="1">
          <mxGeometry x="920" y="580" width="260" height="140" as="geometry" />
        </mxCell>
        <mxCell id="LyubAiNVPV_jIJJPJGrE-30" value="- testName: char" style="text;strokeColor=none;fillColor=none;align=left;verticalAlign=middle;spacingLeft=4;spacingRight=4;overflow=hidden;rotatable=0;points=[[0,0.5],[1,0.5]];portConstraint=eastwest;whiteSpace=wrap;html=1;fontSize=11;" parent="LyubAiNVPV_jIJJPJGrE-29" vertex="1">
          <mxGeometry y="30" width="260" height="20" as="geometry" />
        </mxCell>
        <mxCell id="LyubAiNVPV_jIJJPJGrE-31" value="" style="line;strokeWidth=1;fillColor=none;align=left;verticalAlign=middle;spacingTop=0;spacingLeft=0;spacingRight=0;rotatable=0;labelPosition=right;points=[];portConstraint=eastwest;strokeColor=inherit;spacing=0;" parent="LyubAiNVPV_jIJJPJGrE-29" vertex="1">
          <mxGeometry y="50" width="260" height="10" as="geometry" />
        </mxCell>
        <mxCell id="LyubAiNVPV_jIJJPJGrE-48" style="edgeStyle=orthogonalEdgeStyle;rounded=0;orthogonalLoop=1;jettySize=auto;html=1;exitX=1;exitY=0.5;exitDx=0;exitDy=0;entryX=1;entryY=0.5;entryDx=0;entryDy=0;" parent="LyubAiNVPV_jIJJPJGrE-29" source="LyubAiNVPV_jIJJPJGrE-38" target="LyubAiNVPV_jIJJPJGrE-41" edge="1">
          <mxGeometry relative="1" as="geometry">
            <Array as="points">
              <mxPoint x="280" y="70" />
              <mxPoint x="280" y="90" />
            </Array>
          </mxGeometry>
        </mxCell>
        <mxCell id="LyubAiNVPV_jIJJPJGrE-49" style="edgeStyle=orthogonalEdgeStyle;rounded=0;orthogonalLoop=1;jettySize=auto;html=1;exitX=1;exitY=0.5;exitDx=0;exitDy=0;entryX=1;entryY=0.5;entryDx=0;entryDy=0;" parent="LyubAiNVPV_jIJJPJGrE-29" source="LyubAiNVPV_jIJJPJGrE-38" target="LyubAiNVPV_jIJJPJGrE-44" edge="1">
          <mxGeometry relative="1" as="geometry" />
        </mxCell>
        <mxCell id="m3RcvuXCGORG72tY1Eil-11" style="edgeStyle=orthogonalEdgeStyle;rounded=0;orthogonalLoop=1;jettySize=auto;html=1;exitX=1;exitY=0.5;exitDx=0;exitDy=0;entryX=1;entryY=0.5;entryDx=0;entryDy=0;" edge="1" parent="LyubAiNVPV_jIJJPJGrE-29" source="LyubAiNVPV_jIJJPJGrE-38" target="LyubAiNVPV_jIJJPJGrE-40">
          <mxGeometry relative="1" as="geometry" />
        </mxCell>
        <mxCell id="LyubAiNVPV_jIJJPJGrE-38" value="+ main(): int" style="text;strokeColor=none;fillColor=none;align=left;verticalAlign=middle;spacingLeft=4;spacingRight=4;overflow=hidden;rotatable=0;points=[[0,0.5],[1,0.5]];portConstraint=eastwest;whiteSpace=wrap;html=1;fontSize=11;fontStyle=1" parent="LyubAiNVPV_jIJJPJGrE-29" vertex="1">
          <mxGeometry y="60" width="260" height="20" as="geometry" />
        </mxCell>
        <mxCell id="LyubAiNVPV_jIJJPJGrE-41" value="+&amp;nbsp;testValueSerialize&lt;span style=&quot;background-color: initial;&quot;&gt;(): void&lt;/span&gt;" style="text;strokeColor=none;fillColor=none;align=left;verticalAlign=middle;spacingLeft=4;spacingRight=4;overflow=hidden;rotatable=0;points=[[0,0.5],[1,0.5]];portConstraint=eastwest;whiteSpace=wrap;html=1;fontSize=11;" parent="LyubAiNVPV_jIJJPJGrE-29" vertex="1">
          <mxGeometry y="80" width="260" height="20" as="geometry" />
        </mxCell>
        <mxCell id="LyubAiNVPV_jIJJPJGrE-44" value="+&amp;nbsp;testOperators&lt;span style=&quot;background-color: initial;&quot;&gt;(): void&lt;/span&gt;" style="text;strokeColor=none;fillColor=none;align=left;verticalAlign=middle;spacingLeft=4;spacingRight=4;overflow=hidden;rotatable=0;points=[[0,0.5],[1,0.5]];portConstraint=eastwest;whiteSpace=wrap;html=1;fontSize=11;" parent="LyubAiNVPV_jIJJPJGrE-29" vertex="1">
          <mxGeometry y="100" width="260" height="20" as="geometry" />
        </mxCell>
        <mxCell id="LyubAiNVPV_jIJJPJGrE-40" value="+&amp;nbsp;testExpressions&lt;span style=&quot;background-color: initial;&quot;&gt;(): void&lt;/span&gt;" style="text;strokeColor=none;fillColor=none;align=left;verticalAlign=middle;spacingLeft=4;spacingRight=4;overflow=hidden;rotatable=0;points=[[0,0.5],[1,0.5]];portConstraint=eastwest;whiteSpace=wrap;html=1;fontSize=11;" parent="LyubAiNVPV_jIJJPJGrE-29" vertex="1">
          <mxGeometry y="120" width="260" height="20" as="geometry" />
        </mxCell>
        <mxCell id="LyubAiNVPV_jIJJPJGrE-50" value="buffer_mgr_stat" style="swimlane;fontStyle=1;align=center;verticalAlign=top;childLayout=stackLayout;horizontal=1;startSize=30;horizontalStack=0;resizeParent=1;resizeParentMax=0;resizeLast=0;collapsible=0;marginBottom=0;whiteSpace=wrap;html=1;" parent="1" vertex="1">
          <mxGeometry x="40" y="480" width="380" height="150" as="geometry" />
        </mxCell>
        <mxCell id="LyubAiNVPV_jIJJPJGrE-58" value="+&amp;nbsp;printStrat&lt;span style=&quot;background-color: initial;&quot;&gt;(BM_BufferPool): void&lt;/span&gt;" style="text;strokeColor=none;fillColor=none;align=left;verticalAlign=middle;spacingLeft=4;spacingRight=4;overflow=hidden;rotatable=0;points=[[0,0.5],[1,0.5]];portConstraint=eastwest;whiteSpace=wrap;html=1;fontSize=11;" parent="LyubAiNVPV_jIJJPJGrE-50" vertex="1">
          <mxGeometry y="30" width="380" height="20" as="geometry" />
        </mxCell>
        <mxCell id="LyubAiNVPV_jIJJPJGrE-59" value="+ printPoolContent(BM_BufferPool): void" style="text;strokeColor=none;fillColor=none;align=left;verticalAlign=middle;spacingLeft=4;spacingRight=4;overflow=hidden;rotatable=0;points=[[0,0.5],[1,0.5]];portConstraint=eastwest;whiteSpace=wrap;html=1;fontSize=11;" parent="LyubAiNVPV_jIJJPJGrE-50" vertex="1">
          <mxGeometry y="50" width="380" height="20" as="geometry" />
        </mxCell>
        <mxCell id="LyubAiNVPV_jIJJPJGrE-60" value="+ sprintPoolContent(BM_BufferPool): char" style="text;strokeColor=none;fillColor=none;align=left;verticalAlign=middle;spacingLeft=4;spacingRight=4;overflow=hidden;rotatable=0;points=[[0,0.5],[1,0.5]];portConstraint=eastwest;whiteSpace=wrap;html=1;fontSize=11;" parent="LyubAiNVPV_jIJJPJGrE-50" vertex="1">
          <mxGeometry y="70" width="380" height="20" as="geometry" />
        </mxCell>
        <mxCell id="LyubAiNVPV_jIJJPJGrE-61" value="+&amp;nbsp;printPageContent&lt;span style=&quot;background-color: initial;&quot;&gt;(BM_PageHandle): void&lt;/span&gt;" style="text;strokeColor=none;fillColor=none;align=left;verticalAlign=middle;spacingLeft=4;spacingRight=4;overflow=hidden;rotatable=0;points=[[0,0.5],[1,0.5]];portConstraint=eastwest;whiteSpace=wrap;html=1;fontSize=11;" parent="LyubAiNVPV_jIJJPJGrE-50" vertex="1">
          <mxGeometry y="90" width="380" height="20" as="geometry" />
        </mxCell>
        <mxCell id="LyubAiNVPV_jIJJPJGrE-62" value="+ sprintPageContent(BM_PageHandle): char" style="text;strokeColor=none;fillColor=none;align=left;verticalAlign=middle;spacingLeft=4;spacingRight=4;overflow=hidden;rotatable=0;points=[[0,0.5],[1,0.5]];portConstraint=eastwest;whiteSpace=wrap;html=1;fontSize=11;" parent="LyubAiNVPV_jIJJPJGrE-50" vertex="1">
          <mxGeometry y="110" width="380" height="20" as="geometry" />
        </mxCell>
        <mxCell id="LyubAiNVPV_jIJJPJGrE-63" value="+&amp;nbsp;printStrat&lt;span style=&quot;background-color: initial;&quot;&gt;(BM_BufferPool): void&lt;/span&gt;" style="text;strokeColor=none;fillColor=none;align=left;verticalAlign=middle;spacingLeft=4;spacingRight=4;overflow=hidden;rotatable=0;points=[[0,0.5],[1,0.5]];portConstraint=eastwest;whiteSpace=wrap;html=1;fontSize=11;" parent="LyubAiNVPV_jIJJPJGrE-50" vertex="1">
          <mxGeometry y="130" width="380" height="20" as="geometry" />
        </mxCell>
        <mxCell id="m3RcvuXCGORG72tY1Eil-12" value="record_mgr" style="swimlane;fontStyle=1;align=center;verticalAlign=top;childLayout=stackLayout;horizontal=1;startSize=30;horizontalStack=0;resizeParent=1;resizeParentMax=0;resizeLast=0;collapsible=0;marginBottom=0;whiteSpace=wrap;html=1;" vertex="1" parent="1">
          <mxGeometry x="500" y="39" width="320" height="500" as="geometry" />
        </mxCell>
        <mxCell id="m3RcvuXCGORG72tY1Eil-13" value="*&amp;nbsp;RM_ScanHandle&lt;span style=&quot;background-color: initial;&quot;&gt;: { RM_TableData, void }&lt;/span&gt;" style="text;strokeColor=none;fillColor=none;align=left;verticalAlign=middle;spacingLeft=4;spacingRight=4;overflow=hidden;rotatable=0;points=[[0,0.5],[1,0.5]];portConstraint=eastwest;whiteSpace=wrap;html=1;fontSize=11;" vertex="1" parent="m3RcvuXCGORG72tY1Eil-12">
          <mxGeometry y="30" width="320" height="20" as="geometry" />
        </mxCell>
        <mxCell id="m3RcvuXCGORG72tY1Eil-19" value="" style="line;strokeWidth=1;fillColor=none;align=left;verticalAlign=middle;spacingTop=0;spacingLeft=0;spacingRight=0;rotatable=0;labelPosition=right;points=[];portConstraint=eastwest;strokeColor=inherit;spacing=0;" vertex="1" parent="m3RcvuXCGORG72tY1Eil-12">
          <mxGeometry y="50" width="320" height="10" as="geometry" />
        </mxCell>
        <mxCell id="m3RcvuXCGORG72tY1Eil-20" value="+&amp;nbsp;initRecordManager&lt;span style=&quot;background-color: initial;&quot;&gt;(void): RC&lt;/span&gt;" style="text;strokeColor=none;fillColor=none;align=left;verticalAlign=middle;spacingLeft=4;spacingRight=4;overflow=hidden;rotatable=0;points=[[0,0.5],[1,0.5]];portConstraint=eastwest;whiteSpace=wrap;html=1;fontSize=11;" vertex="1" parent="m3RcvuXCGORG72tY1Eil-12">
          <mxGeometry y="60" width="320" height="20" as="geometry" />
        </mxCell>
        <mxCell id="m3RcvuXCGORG72tY1Eil-21" value="+&amp;nbsp;shutdownRecordManager&lt;span style=&quot;background-color: initial;&quot;&gt;(): RC&lt;/span&gt;" style="text;strokeColor=none;fillColor=none;align=left;verticalAlign=middle;spacingLeft=4;spacingRight=4;overflow=hidden;rotatable=0;points=[[0,0.5],[1,0.5]];portConstraint=eastwest;whiteSpace=wrap;html=1;fontSize=11;" vertex="1" parent="m3RcvuXCGORG72tY1Eil-12">
          <mxGeometry y="80" width="320" height="20" as="geometry" />
        </mxCell>
        <mxCell id="m3RcvuXCGORG72tY1Eil-22" value="+&amp;nbsp;createTable&lt;span style=&quot;background-color: initial;&quot;&gt;(char, Schema): RC&lt;/span&gt;" style="text;strokeColor=none;fillColor=none;align=left;verticalAlign=middle;spacingLeft=4;spacingRight=4;overflow=hidden;rotatable=0;points=[[0,0.5],[1,0.5]];portConstraint=eastwest;whiteSpace=wrap;html=1;fontSize=11;" vertex="1" parent="m3RcvuXCGORG72tY1Eil-12">
          <mxGeometry y="100" width="320" height="20" as="geometry" />
        </mxCell>
        <mxCell id="m3RcvuXCGORG72tY1Eil-23" value="+ openTable(RM_TableData, char): RC" style="text;strokeColor=none;fillColor=none;align=left;verticalAlign=middle;spacingLeft=4;spacingRight=4;overflow=hidden;rotatable=0;points=[[0,0.5],[1,0.5]];portConstraint=eastwest;whiteSpace=wrap;html=1;fontSize=11;" vertex="1" parent="m3RcvuXCGORG72tY1Eil-12">
          <mxGeometry y="120" width="320" height="20" as="geometry" />
        </mxCell>
        <mxCell id="m3RcvuXCGORG72tY1Eil-24" value="+ closeTable(RM_TableData): RC" style="text;strokeColor=none;fillColor=none;align=left;verticalAlign=middle;spacingLeft=4;spacingRight=4;overflow=hidden;rotatable=0;points=[[0,0.5],[1,0.5]];portConstraint=eastwest;whiteSpace=wrap;html=1;fontSize=11;" vertex="1" parent="m3RcvuXCGORG72tY1Eil-12">
          <mxGeometry y="140" width="320" height="20" as="geometry" />
        </mxCell>
        <mxCell id="m3RcvuXCGORG72tY1Eil-25" value="+ deleteTable(char): RC" style="text;strokeColor=none;fillColor=none;align=left;verticalAlign=middle;spacingLeft=4;spacingRight=4;overflow=hidden;rotatable=0;points=[[0,0.5],[1,0.5]];portConstraint=eastwest;whiteSpace=wrap;html=1;fontSize=11;" vertex="1" parent="m3RcvuXCGORG72tY1Eil-12">
          <mxGeometry y="160" width="320" height="20" as="geometry" />
        </mxCell>
        <mxCell id="m3RcvuXCGORG72tY1Eil-26" value="+&amp;nbsp;getNumTuples&lt;span style=&quot;background-color: initial;&quot;&gt;(RM_TableData): int&lt;/span&gt;" style="text;strokeColor=none;fillColor=none;align=left;verticalAlign=middle;spacingLeft=4;spacingRight=4;overflow=hidden;rotatable=0;points=[[0,0.5],[1,0.5]];portConstraint=eastwest;whiteSpace=wrap;html=1;fontSize=11;" vertex="1" parent="m3RcvuXCGORG72tY1Eil-12">
          <mxGeometry y="180" width="320" height="20" as="geometry" />
        </mxCell>
        <mxCell id="m3RcvuXCGORG72tY1Eil-27" value="+ insertRecord(RM_TableData, Record): RC" style="text;strokeColor=none;fillColor=none;align=left;verticalAlign=middle;spacingLeft=4;spacingRight=4;overflow=hidden;rotatable=0;points=[[0,0.5],[1,0.5]];portConstraint=eastwest;whiteSpace=wrap;html=1;fontSize=11;" vertex="1" parent="m3RcvuXCGORG72tY1Eil-12">
          <mxGeometry y="200" width="320" height="20" as="geometry" />
        </mxCell>
        <mxCell id="m3RcvuXCGORG72tY1Eil-30" value="+ getRecord(RM_TableData, RID, Record): RC" style="text;strokeColor=none;fillColor=none;align=left;verticalAlign=middle;spacingLeft=4;spacingRight=4;overflow=hidden;rotatable=0;points=[[0,0.5],[1,0.5]];portConstraint=eastwest;whiteSpace=wrap;html=1;fontSize=11;" vertex="1" parent="m3RcvuXCGORG72tY1Eil-12">
          <mxGeometry y="220" width="320" height="20" as="geometry" />
        </mxCell>
        <mxCell id="m3RcvuXCGORG72tY1Eil-28" value="+ deleteRecord(RM_TableData, RID): RC" style="text;strokeColor=none;fillColor=none;align=left;verticalAlign=middle;spacingLeft=4;spacingRight=4;overflow=hidden;rotatable=0;points=[[0,0.5],[1,0.5]];portConstraint=eastwest;whiteSpace=wrap;html=1;fontSize=11;" vertex="1" parent="m3RcvuXCGORG72tY1Eil-12">
          <mxGeometry y="240" width="320" height="20" as="geometry" />
        </mxCell>
        <mxCell id="m3RcvuXCGORG72tY1Eil-29" value="+ updateRecord(RM_TableData, Record): RC" style="text;strokeColor=none;fillColor=none;align=left;verticalAlign=middle;spacingLeft=4;spacingRight=4;overflow=hidden;rotatable=0;points=[[0,0.5],[1,0.5]];portConstraint=eastwest;whiteSpace=wrap;html=1;fontSize=11;" vertex="1" parent="m3RcvuXCGORG72tY1Eil-12">
          <mxGeometry y="260" width="320" height="20" as="geometry" />
        </mxCell>
        <mxCell id="m3RcvuXCGORG72tY1Eil-31" value="+ startScan(RMTableData, RM_ScanHandle, Expr): RC" style="text;strokeColor=none;fillColor=none;align=left;verticalAlign=middle;spacingLeft=4;spacingRight=4;overflow=hidden;rotatable=0;points=[[0,0.5],[1,0.5]];portConstraint=eastwest;whiteSpace=wrap;html=1;fontSize=11;" vertex="1" parent="m3RcvuXCGORG72tY1Eil-12">
          <mxGeometry y="280" width="320" height="20" as="geometry" />
        </mxCell>
        <mxCell id="m3RcvuXCGORG72tY1Eil-34" value="+ next(RM_ScanHandle, Record): RC" style="text;strokeColor=none;fillColor=none;align=left;verticalAlign=middle;spacingLeft=4;spacingRight=4;overflow=hidden;rotatable=0;points=[[0,0.5],[1,0.5]];portConstraint=eastwest;whiteSpace=wrap;html=1;fontSize=11;" vertex="1" parent="m3RcvuXCGORG72tY1Eil-12">
          <mxGeometry y="300" width="320" height="20" as="geometry" />
        </mxCell>
        <mxCell id="m3RcvuXCGORG72tY1Eil-35" value="+ closeScan(RM_ScanHandle): RC" style="text;strokeColor=none;fillColor=none;align=left;verticalAlign=middle;spacingLeft=4;spacingRight=4;overflow=hidden;rotatable=0;points=[[0,0.5],[1,0.5]];portConstraint=eastwest;whiteSpace=wrap;html=1;fontSize=11;" vertex="1" parent="m3RcvuXCGORG72tY1Eil-12">
          <mxGeometry y="320" width="320" height="20" as="geometry" />
        </mxCell>
        <mxCell id="m3RcvuXCGORG72tY1Eil-36" value="+ getRecordSize(Schema): int" style="text;strokeColor=none;fillColor=none;align=left;verticalAlign=middle;spacingLeft=4;spacingRight=4;overflow=hidden;rotatable=0;points=[[0,0.5],[1,0.5]];portConstraint=eastwest;whiteSpace=wrap;html=1;fontSize=11;" vertex="1" parent="m3RcvuXCGORG72tY1Eil-12">
          <mxGeometry y="340" width="320" height="20" as="geometry" />
        </mxCell>
        <mxCell id="m3RcvuXCGORG72tY1Eil-37" value="+ createSchema(int, char[], DataType[], int[], int, int): Schema" style="text;strokeColor=none;fillColor=none;align=left;verticalAlign=middle;spacingLeft=4;spacingRight=4;overflow=hidden;rotatable=0;points=[[0,0.5],[1,0.5]];portConstraint=eastwest;whiteSpace=wrap;html=1;fontSize=11;" vertex="1" parent="m3RcvuXCGORG72tY1Eil-12">
          <mxGeometry y="360" width="320" height="20" as="geometry" />
        </mxCell>
        <mxCell id="m3RcvuXCGORG72tY1Eil-39" value="+ freeSchema(Schema): RC" style="text;strokeColor=none;fillColor=none;align=left;verticalAlign=middle;spacingLeft=4;spacingRight=4;overflow=hidden;rotatable=0;points=[[0,0.5],[1,0.5]];portConstraint=eastwest;whiteSpace=wrap;html=1;fontSize=11;" vertex="1" parent="m3RcvuXCGORG72tY1Eil-12">
          <mxGeometry y="380" width="320" height="20" as="geometry" />
        </mxCell>
        <mxCell id="m3RcvuXCGORG72tY1Eil-38" value="+ createRecord(Record, Schema): RC" style="text;strokeColor=none;fillColor=none;align=left;verticalAlign=middle;spacingLeft=4;spacingRight=4;overflow=hidden;rotatable=0;points=[[0,0.5],[1,0.5]];portConstraint=eastwest;whiteSpace=wrap;html=1;fontSize=11;" vertex="1" parent="m3RcvuXCGORG72tY1Eil-12">
          <mxGeometry y="400" width="320" height="20" as="geometry" />
        </mxCell>
        <mxCell id="m3RcvuXCGORG72tY1Eil-41" value="+ freeRecord(Record): RC" style="text;strokeColor=none;fillColor=none;align=left;verticalAlign=middle;spacingLeft=4;spacingRight=4;overflow=hidden;rotatable=0;points=[[0,0.5],[1,0.5]];portConstraint=eastwest;whiteSpace=wrap;html=1;fontSize=11;" vertex="1" parent="m3RcvuXCGORG72tY1Eil-12">
          <mxGeometry y="420" width="320" height="20" as="geometry" />
        </mxCell>
        <mxCell id="m3RcvuXCGORG72tY1Eil-40" value="+ getAttr(Record, Schema, int, Value[]): RC" style="text;strokeColor=none;fillColor=none;align=left;verticalAlign=middle;spacingLeft=4;spacingRight=4;overflow=hidden;rotatable=0;points=[[0,0.5],[1,0.5]];portConstraint=eastwest;whiteSpace=wrap;html=1;fontSize=11;" vertex="1" parent="m3RcvuXCGORG72tY1Eil-12">
          <mxGeometry y="440" width="320" height="20" as="geometry" />
        </mxCell>
        <mxCell id="m3RcvuXCGORG72tY1Eil-43" value="+ setAttr(Record, Schema, int, Value): RC" style="text;strokeColor=none;fillColor=none;align=left;verticalAlign=middle;spacingLeft=4;spacingRight=4;overflow=hidden;rotatable=0;points=[[0,0.5],[1,0.5]];portConstraint=eastwest;whiteSpace=wrap;html=1;fontSize=11;" vertex="1" parent="m3RcvuXCGORG72tY1Eil-12">
          <mxGeometry y="460" width="320" height="20" as="geometry" />
        </mxCell>
        <mxCell id="m3RcvuXCGORG72tY1Eil-42" value="+ createPageDirectoryNode(int): PageDirectory" style="text;strokeColor=none;fillColor=none;align=left;verticalAlign=middle;spacingLeft=4;spacingRight=4;overflow=hidden;rotatable=0;points=[[0,0.5],[1,0.5]];portConstraint=eastwest;whiteSpace=wrap;html=1;fontSize=11;" vertex="1" parent="m3RcvuXCGORG72tY1Eil-12">
          <mxGeometry y="480" width="320" height="20" as="geometry" />
        </mxCell>
        <mxCell id="m3RcvuXCGORG72tY1Eil-44" style="edgeStyle=orthogonalEdgeStyle;rounded=0;orthogonalLoop=1;jettySize=auto;html=1;exitX=0;exitY=0.5;exitDx=0;exitDy=0;entryX=1;entryY=0.5;entryDx=0;entryDy=0;" edge="1" parent="1" source="LyubAiNVPV_jIJJPJGrE-25" target="m3RcvuXCGORG72tY1Eil-40">
          <mxGeometry relative="1" as="geometry">
            <Array as="points">
              <mxPoint x="900" y="279" />
              <mxPoint x="900" y="489" />
            </Array>
          </mxGeometry>
        </mxCell>
        <mxCell id="m3RcvuXCGORG72tY1Eil-45" style="edgeStyle=orthogonalEdgeStyle;rounded=0;orthogonalLoop=1;jettySize=auto;html=1;exitX=0;exitY=0.5;exitDx=0;exitDy=0;entryX=1;entryY=0.5;entryDx=0;entryDy=0;" edge="1" parent="1" source="LyubAiNVPV_jIJJPJGrE-25" target="m3RcvuXCGORG72tY1Eil-43">
          <mxGeometry relative="1" as="geometry">
            <Array as="points">
              <mxPoint x="900" y="279" />
              <mxPoint x="900" y="509" />
            </Array>
          </mxGeometry>
        </mxCell>
        <mxCell id="m3RcvuXCGORG72tY1Eil-51" style="edgeStyle=orthogonalEdgeStyle;rounded=0;orthogonalLoop=1;jettySize=auto;html=1;exitX=0;exitY=0.5;exitDx=0;exitDy=0;entryX=1;entryY=0.5;entryDx=0;entryDy=0;" edge="1" parent="1" source="2W-PBRkv51gdTkOP3Wb2-70" target="m3RcvuXCGORG72tY1Eil-20">
          <mxGeometry relative="1" as="geometry">
            <Array as="points">
              <mxPoint x="900" y="159" />
              <mxPoint x="900" y="170" />
              <mxPoint x="840" y="170" />
              <mxPoint x="840" y="109" />
            </Array>
          </mxGeometry>
        </mxCell>
        <mxCell id="m3RcvuXCGORG72tY1Eil-52" style="edgeStyle=orthogonalEdgeStyle;rounded=0;orthogonalLoop=1;jettySize=auto;html=1;exitX=0;exitY=0.5;exitDx=0;exitDy=0;entryX=1;entryY=0.5;entryDx=0;entryDy=0;" edge="1" parent="1" source="2W-PBRkv51gdTkOP3Wb2-70" target="m3RcvuXCGORG72tY1Eil-21">
          <mxGeometry relative="1" as="geometry">
            <Array as="points">
              <mxPoint x="900" y="159" />
              <mxPoint x="900" y="170" />
              <mxPoint x="840" y="170" />
              <mxPoint x="840" y="129" />
            </Array>
          </mxGeometry>
        </mxCell>
        <mxCell id="m3RcvuXCGORG72tY1Eil-53" style="edgeStyle=orthogonalEdgeStyle;rounded=0;orthogonalLoop=1;jettySize=auto;html=1;exitX=0;exitY=0.5;exitDx=0;exitDy=0;entryX=1;entryY=0.5;entryDx=0;entryDy=0;" edge="1" parent="1" source="2W-PBRkv51gdTkOP3Wb2-70" target="m3RcvuXCGORG72tY1Eil-22">
          <mxGeometry relative="1" as="geometry">
            <Array as="points">
              <mxPoint x="900" y="159" />
              <mxPoint x="900" y="170" />
              <mxPoint x="840" y="170" />
              <mxPoint x="840" y="149" />
            </Array>
          </mxGeometry>
        </mxCell>
        <mxCell id="m3RcvuXCGORG72tY1Eil-54" style="edgeStyle=orthogonalEdgeStyle;rounded=0;orthogonalLoop=1;jettySize=auto;html=1;exitX=0;exitY=0.5;exitDx=0;exitDy=0;entryX=1;entryY=0.5;entryDx=0;entryDy=0;" edge="1" parent="1" source="2W-PBRkv51gdTkOP3Wb2-70" target="m3RcvuXCGORG72tY1Eil-23">
          <mxGeometry relative="1" as="geometry">
            <Array as="points">
              <mxPoint x="900" y="159" />
              <mxPoint x="900" y="170" />
              <mxPoint x="840" y="170" />
              <mxPoint x="840" y="169" />
            </Array>
          </mxGeometry>
        </mxCell>
        <mxCell id="m3RcvuXCGORG72tY1Eil-55" style="edgeStyle=orthogonalEdgeStyle;rounded=0;orthogonalLoop=1;jettySize=auto;html=1;exitX=0;exitY=0.5;exitDx=0;exitDy=0;entryX=1;entryY=0.5;entryDx=0;entryDy=0;" edge="1" parent="1" source="2W-PBRkv51gdTkOP3Wb2-70" target="m3RcvuXCGORG72tY1Eil-24">
          <mxGeometry relative="1" as="geometry">
            <Array as="points">
              <mxPoint x="900" y="159" />
              <mxPoint x="900" y="170" />
              <mxPoint x="840" y="170" />
              <mxPoint x="840" y="189" />
            </Array>
          </mxGeometry>
        </mxCell>
        <mxCell id="m3RcvuXCGORG72tY1Eil-56" style="edgeStyle=orthogonalEdgeStyle;rounded=0;orthogonalLoop=1;jettySize=auto;html=1;exitX=0;exitY=0.5;exitDx=0;exitDy=0;entryX=1;entryY=0.5;entryDx=0;entryDy=0;" edge="1" parent="1" source="2W-PBRkv51gdTkOP3Wb2-70" target="m3RcvuXCGORG72tY1Eil-25">
          <mxGeometry relative="1" as="geometry">
            <Array as="points">
              <mxPoint x="900" y="159" />
              <mxPoint x="900" y="170" />
              <mxPoint x="840" y="170" />
              <mxPoint x="840" y="209" />
            </Array>
          </mxGeometry>
        </mxCell>
        <mxCell id="m3RcvuXCGORG72tY1Eil-57" style="edgeStyle=orthogonalEdgeStyle;rounded=0;orthogonalLoop=1;jettySize=auto;html=1;exitX=0;exitY=0.5;exitDx=0;exitDy=0;entryX=1;entryY=0.5;entryDx=0;entryDy=0;" edge="1" parent="1" source="2W-PBRkv51gdTkOP3Wb2-70" target="m3RcvuXCGORG72tY1Eil-27">
          <mxGeometry relative="1" as="geometry">
            <Array as="points">
              <mxPoint x="900" y="159" />
              <mxPoint x="900" y="170" />
              <mxPoint x="840" y="170" />
              <mxPoint x="840" y="249" />
            </Array>
          </mxGeometry>
        </mxCell>
        <mxCell id="m3RcvuXCGORG72tY1Eil-59" style="edgeStyle=orthogonalEdgeStyle;rounded=0;orthogonalLoop=1;jettySize=auto;html=1;exitX=0;exitY=0.5;exitDx=0;exitDy=0;entryX=1;entryY=0.5;entryDx=0;entryDy=0;" edge="1" parent="1" source="2W-PBRkv51gdTkOP3Wb2-71" target="m3RcvuXCGORG72tY1Eil-20">
          <mxGeometry relative="1" as="geometry">
            <Array as="points">
              <mxPoint x="900" y="179" />
              <mxPoint x="900" y="170" />
              <mxPoint x="840" y="170" />
              <mxPoint x="840" y="109" />
            </Array>
          </mxGeometry>
        </mxCell>
        <mxCell id="m3RcvuXCGORG72tY1Eil-61" style="edgeStyle=orthogonalEdgeStyle;rounded=0;orthogonalLoop=1;jettySize=auto;html=1;exitX=0;exitY=0.5;exitDx=0;exitDy=0;entryX=1;entryY=0.5;entryDx=0;entryDy=0;" edge="1" parent="1" source="LyubAiNVPV_jIJJPJGrE-26" target="m3RcvuXCGORG72tY1Eil-29">
          <mxGeometry relative="1" as="geometry">
            <Array as="points">
              <mxPoint x="860" y="199" />
              <mxPoint x="860" y="309" />
            </Array>
          </mxGeometry>
        </mxCell>
        <mxCell id="m3RcvuXCGORG72tY1Eil-62" style="edgeStyle=orthogonalEdgeStyle;rounded=0;orthogonalLoop=1;jettySize=auto;html=1;exitX=0;exitY=0.5;exitDx=0;exitDy=0;entryX=1;entryY=0.5;entryDx=0;entryDy=0;" edge="1" parent="1" source="LyubAiNVPV_jIJJPJGrE-26" target="m3RcvuXCGORG72tY1Eil-28">
          <mxGeometry relative="1" as="geometry">
            <Array as="points">
              <mxPoint x="860" y="199" />
              <mxPoint x="860" y="289" />
            </Array>
          </mxGeometry>
        </mxCell>
        <mxCell id="m3RcvuXCGORG72tY1Eil-63" style="edgeStyle=orthogonalEdgeStyle;rounded=0;orthogonalLoop=1;jettySize=auto;html=1;exitX=0;exitY=0.5;exitDx=0;exitDy=0;entryX=1;entryY=0.5;entryDx=0;entryDy=0;" edge="1" parent="1" source="2W-PBRkv51gdTkOP3Wb2-70" target="m3RcvuXCGORG72tY1Eil-30">
          <mxGeometry relative="1" as="geometry">
            <Array as="points">
              <mxPoint x="900" y="159" />
              <mxPoint x="900" y="170" />
              <mxPoint x="840" y="170" />
              <mxPoint x="840" y="269" />
            </Array>
          </mxGeometry>
        </mxCell>
        <mxCell id="m3RcvuXCGORG72tY1Eil-68" style="edgeStyle=orthogonalEdgeStyle;rounded=0;orthogonalLoop=1;jettySize=auto;html=1;exitX=0;exitY=0.5;exitDx=0;exitDy=0;entryX=1;entryY=0.5;entryDx=0;entryDy=0;" edge="1" parent="1" source="6TKqkTE9r3XJfxrBiwmd-1" target="m3RcvuXCGORG72tY1Eil-31">
          <mxGeometry relative="1" as="geometry">
            <Array as="points">
              <mxPoint x="880" y="239" />
              <mxPoint x="880" y="329" />
            </Array>
          </mxGeometry>
        </mxCell>
        <mxCell id="m3RcvuXCGORG72tY1Eil-69" style="edgeStyle=orthogonalEdgeStyle;rounded=0;orthogonalLoop=1;jettySize=auto;html=1;exitX=0;exitY=0.5;exitDx=0;exitDy=0;entryX=1;entryY=0.5;entryDx=0;entryDy=0;" edge="1" parent="1" source="6TKqkTE9r3XJfxrBiwmd-1" target="m3RcvuXCGORG72tY1Eil-34">
          <mxGeometry relative="1" as="geometry">
            <Array as="points">
              <mxPoint x="880" y="239" />
              <mxPoint x="880" y="349" />
            </Array>
          </mxGeometry>
        </mxCell>
        <mxCell id="m3RcvuXCGORG72tY1Eil-70" style="edgeStyle=orthogonalEdgeStyle;rounded=0;orthogonalLoop=1;jettySize=auto;html=1;exitX=0;exitY=0.5;exitDx=0;exitDy=0;entryX=1;entryY=0.5;entryDx=0;entryDy=0;" edge="1" parent="1" source="6TKqkTE9r3XJfxrBiwmd-1" target="m3RcvuXCGORG72tY1Eil-35">
          <mxGeometry relative="1" as="geometry">
            <Array as="points">
              <mxPoint x="880" y="239" />
              <mxPoint x="880" y="369" />
            </Array>
          </mxGeometry>
        </mxCell>
        <mxCell id="m3RcvuXCGORG72tY1Eil-71" style="edgeStyle=orthogonalEdgeStyle;rounded=0;orthogonalLoop=1;jettySize=auto;html=1;exitX=0;exitY=0.5;exitDx=0;exitDy=0;entryX=1;entryY=0.5;entryDx=0;entryDy=0;" edge="1" parent="1" source="Ri6osJwRoKcSnOSPko2Z-1" target="m3RcvuXCGORG72tY1Eil-31">
          <mxGeometry relative="1" as="geometry">
            <Array as="points">
              <mxPoint x="900" y="219" />
              <mxPoint x="900" y="240" />
              <mxPoint x="880" y="240" />
              <mxPoint x="880" y="329" />
            </Array>
          </mxGeometry>
        </mxCell>
        <mxCell id="m3RcvuXCGORG72tY1Eil-72" style="edgeStyle=orthogonalEdgeStyle;rounded=0;orthogonalLoop=1;jettySize=auto;html=1;exitX=0;exitY=0.5;exitDx=0;exitDy=0;entryX=1;entryY=0.5;entryDx=0;entryDy=0;" edge="1" parent="1" source="m3RcvuXCGORG72tY1Eil-1" target="m3RcvuXCGORG72tY1Eil-31">
          <mxGeometry relative="1" as="geometry">
            <Array as="points">
              <mxPoint x="900" y="259" />
              <mxPoint x="900" y="240" />
              <mxPoint x="880" y="240" />
              <mxPoint x="880" y="329" />
            </Array>
          </mxGeometry>
        </mxCell>
        <mxCell id="m3RcvuXCGORG72tY1Eil-73" value="rm_serialzer" style="swimlane;fontStyle=1;align=center;verticalAlign=top;childLayout=stackLayout;horizontal=1;startSize=30;horizontalStack=0;resizeParent=1;resizeParentMax=0;resizeLast=0;collapsible=0;marginBottom=0;whiteSpace=wrap;html=1;" vertex="1" parent="1">
          <mxGeometry x="500" y="580" width="320" height="640" as="geometry" />
        </mxCell>
        <mxCell id="m3RcvuXCGORG72tY1Eil-80" value="*&amp;nbsp;DataType&lt;span style=&quot;background-color: initial;&quot;&gt;: enum&lt;/span&gt;" style="text;strokeColor=none;fillColor=none;align=left;verticalAlign=middle;spacingLeft=4;spacingRight=4;overflow=hidden;rotatable=0;points=[[0,0.5],[1,0.5]];portConstraint=eastwest;whiteSpace=wrap;html=1;fontSize=11;" vertex="1" parent="m3RcvuXCGORG72tY1Eil-73">
          <mxGeometry y="30" width="320" height="20" as="geometry" />
        </mxCell>
        <mxCell id="m3RcvuXCGORG72tY1Eil-91" value="* Value&lt;span style=&quot;background-color: initial;&quot;&gt;: { DataType, union }&lt;/span&gt;" style="text;strokeColor=none;fillColor=none;align=left;verticalAlign=middle;spacingLeft=4;spacingRight=4;overflow=hidden;rotatable=0;points=[[0,0.5],[1,0.5]];portConstraint=eastwest;whiteSpace=wrap;html=1;fontSize=11;" vertex="1" parent="m3RcvuXCGORG72tY1Eil-73">
          <mxGeometry y="50" width="320" height="20" as="geometry" />
        </mxCell>
        <mxCell id="m3RcvuXCGORG72tY1Eil-93" value="* RID&lt;span style=&quot;background-color: initial;&quot;&gt;: { int, int }&lt;/span&gt;" style="text;strokeColor=none;fillColor=none;align=left;verticalAlign=middle;spacingLeft=4;spacingRight=4;overflow=hidden;rotatable=0;points=[[0,0.5],[1,0.5]];portConstraint=eastwest;whiteSpace=wrap;html=1;fontSize=11;" vertex="1" parent="m3RcvuXCGORG72tY1Eil-73">
          <mxGeometry y="70" width="320" height="20" as="geometry" />
        </mxCell>
        <mxCell id="m3RcvuXCGORG72tY1Eil-92" value="* Record&lt;span style=&quot;background-color: initial;&quot;&gt;: { RID, char }&lt;/span&gt;" style="text;strokeColor=none;fillColor=none;align=left;verticalAlign=middle;spacingLeft=4;spacingRight=4;overflow=hidden;rotatable=0;points=[[0,0.5],[1,0.5]];portConstraint=eastwest;whiteSpace=wrap;html=1;fontSize=11;" vertex="1" parent="m3RcvuXCGORG72tY1Eil-73">
          <mxGeometry y="90" width="320" height="20" as="geometry" />
        </mxCell>
        <mxCell id="m3RcvuXCGORG72tY1Eil-94" value="* Schema&lt;span style=&quot;background-color: initial;&quot;&gt;: { int, char[], DataType[], int[], int[], int }&lt;/span&gt;" style="text;strokeColor=none;fillColor=none;align=left;verticalAlign=middle;spacingLeft=4;spacingRight=4;overflow=hidden;rotatable=0;points=[[0,0.5],[1,0.5]];portConstraint=eastwest;whiteSpace=wrap;html=1;fontSize=11;" vertex="1" parent="m3RcvuXCGORG72tY1Eil-73">
          <mxGeometry y="110" width="320" height="20" as="geometry" />
        </mxCell>
        <mxCell id="m3RcvuXCGORG72tY1Eil-110" value="* RM_TableData&lt;span style=&quot;background-color: initial;&quot;&gt;: { char, Schema, void }&lt;/span&gt;" style="text;strokeColor=none;fillColor=none;align=left;verticalAlign=middle;spacingLeft=4;spacingRight=4;overflow=hidden;rotatable=0;points=[[0,0.5],[1,0.5]];portConstraint=eastwest;whiteSpace=wrap;html=1;fontSize=11;" vertex="1" parent="m3RcvuXCGORG72tY1Eil-73">
          <mxGeometry y="130" width="320" height="20" as="geometry" />
        </mxCell>
        <mxCell id="m3RcvuXCGORG72tY1Eil-95" value="* PageDirectory: { int, int, int,&amp;nbsp;PageDirectory, PageDirectory&amp;nbsp;&lt;span style=&quot;background-color: initial;&quot;&gt;}&lt;/span&gt;" style="text;strokeColor=none;fillColor=none;align=left;verticalAlign=middle;spacingLeft=4;spacingRight=4;overflow=hidden;rotatable=0;points=[[0,0.5],[1,0.5]];portConstraint=eastwest;whiteSpace=wrap;html=1;fontSize=11;" vertex="1" parent="m3RcvuXCGORG72tY1Eil-73">
          <mxGeometry y="150" width="320" height="20" as="geometry" />
        </mxCell>
        <mxCell id="m3RcvuXCGORG72tY1Eil-111" value="* PageDirectoryCache: { int, int, PageDirectory, PageDirectory&amp;nbsp;&lt;span style=&quot;background-color: initial;&quot;&gt;}&lt;/span&gt;" style="text;strokeColor=none;fillColor=none;align=left;verticalAlign=middle;spacingLeft=4;spacingRight=4;overflow=hidden;rotatable=0;points=[[0,0.5],[1,0.5]];portConstraint=eastwest;whiteSpace=wrap;html=1;fontSize=11;" vertex="1" parent="m3RcvuXCGORG72tY1Eil-73">
          <mxGeometry y="170" width="320" height="20" as="geometry" />
        </mxCell>
        <mxCell id="m3RcvuXCGORG72tY1Eil-112" value="* RecordNode: { int, int, char, RecordNode, RecordNode&amp;nbsp;&lt;span style=&quot;background-color: initial;&quot;&gt;}&lt;/span&gt;" style="text;strokeColor=none;fillColor=none;align=left;verticalAlign=middle;spacingLeft=4;spacingRight=4;overflow=hidden;rotatable=0;points=[[0,0.5],[1,0.5]];portConstraint=eastwest;whiteSpace=wrap;html=1;fontSize=11;" vertex="1" parent="m3RcvuXCGORG72tY1Eil-73">
          <mxGeometry y="190" width="320" height="20" as="geometry" />
        </mxCell>
        <mxCell id="m3RcvuXCGORG72tY1Eil-115" value="* VarString: { char, int, int&amp;nbsp;&lt;span style=&quot;background-color: initial;&quot;&gt;}&lt;/span&gt;" style="text;strokeColor=none;fillColor=none;align=left;verticalAlign=middle;spacingLeft=4;spacingRight=4;overflow=hidden;rotatable=0;points=[[0,0.5],[1,0.5]];portConstraint=eastwest;whiteSpace=wrap;html=1;fontSize=11;" vertex="1" parent="m3RcvuXCGORG72tY1Eil-73">
          <mxGeometry y="210" width="320" height="20" as="geometry" />
        </mxCell>
        <mxCell id="m3RcvuXCGORG72tY1Eil-81" value="" style="line;strokeWidth=1;fillColor=none;align=left;verticalAlign=middle;spacingTop=0;spacingLeft=0;spacingRight=0;rotatable=0;labelPosition=right;points=[];portConstraint=eastwest;strokeColor=inherit;spacing=0;" vertex="1" parent="m3RcvuXCGORG72tY1Eil-73">
          <mxGeometry y="230" width="320" height="10" as="geometry" />
        </mxCell>
        <mxCell id="m3RcvuXCGORG72tY1Eil-74" value="+&amp;nbsp;attrOffset&lt;span style=&quot;background-color: initial;&quot;&gt;(Schema, int, int): RC&lt;/span&gt;" style="text;strokeColor=none;fillColor=none;align=left;verticalAlign=middle;spacingLeft=4;spacingRight=4;overflow=hidden;rotatable=0;points=[[0,0.5],[1,0.5]];portConstraint=eastwest;whiteSpace=wrap;html=1;fontSize=11;" vertex="1" parent="m3RcvuXCGORG72tY1Eil-73">
          <mxGeometry y="240" width="320" height="20" as="geometry" />
        </mxCell>
        <mxCell id="m3RcvuXCGORG72tY1Eil-116" value="+&amp;nbsp;stringToValue&lt;span style=&quot;background-color: initial;&quot;&gt;(char): Value&lt;/span&gt;" style="text;strokeColor=none;fillColor=none;align=left;verticalAlign=middle;spacingLeft=4;spacingRight=4;overflow=hidden;rotatable=0;points=[[0,0.5],[1,0.5]];portConstraint=eastwest;whiteSpace=wrap;html=1;fontSize=11;" vertex="1" parent="m3RcvuXCGORG72tY1Eil-73">
          <mxGeometry y="260" width="320" height="20" as="geometry" />
        </mxCell>
        <mxCell id="m3RcvuXCGORG72tY1Eil-75" value="+&amp;nbsp;serializeTableInfo(RM_TableData): char" style="text;strokeColor=none;fillColor=none;align=left;verticalAlign=middle;spacingLeft=4;spacingRight=4;overflow=hidden;rotatable=0;points=[[0,0.5],[1,0.5]];portConstraint=eastwest;whiteSpace=wrap;html=1;fontSize=11;" vertex="1" parent="m3RcvuXCGORG72tY1Eil-73">
          <mxGeometry y="280" width="320" height="20" as="geometry" />
        </mxCell>
        <mxCell id="m3RcvuXCGORG72tY1Eil-76" value="+&amp;nbsp;serializeTableContent(RM_TableData): char" style="text;strokeColor=none;fillColor=none;align=left;verticalAlign=middle;spacingLeft=4;spacingRight=4;overflow=hidden;rotatable=0;points=[[0,0.5],[1,0.5]];portConstraint=eastwest;whiteSpace=wrap;html=1;fontSize=11;" vertex="1" parent="m3RcvuXCGORG72tY1Eil-73">
          <mxGeometry y="300" width="320" height="20" as="geometry" />
        </mxCell>
        <mxCell id="m3RcvuXCGORG72tY1Eil-77" value="+ serializeSchema(Schema): char" style="text;strokeColor=none;fillColor=none;align=left;verticalAlign=middle;spacingLeft=4;spacingRight=4;overflow=hidden;rotatable=0;points=[[0,0.5],[1,0.5]];portConstraint=eastwest;whiteSpace=wrap;html=1;fontSize=11;" vertex="1" parent="m3RcvuXCGORG72tY1Eil-73">
          <mxGeometry y="320" width="320" height="20" as="geometry" />
        </mxCell>
        <mxCell id="m3RcvuXCGORG72tY1Eil-78" value="+ serializeRecord(Record, Schema): char" style="text;strokeColor=none;fillColor=none;align=left;verticalAlign=middle;spacingLeft=4;spacingRight=4;overflow=hidden;rotatable=0;points=[[0,0.5],[1,0.5]];portConstraint=eastwest;whiteSpace=wrap;html=1;fontSize=11;" vertex="1" parent="m3RcvuXCGORG72tY1Eil-73">
          <mxGeometry y="340" width="320" height="20" as="geometry" />
        </mxCell>
        <mxCell id="m3RcvuXCGORG72tY1Eil-79" value="+ serializeAttr(Record, Schema, int): char" style="text;strokeColor=none;fillColor=none;align=left;verticalAlign=middle;spacingLeft=4;spacingRight=4;overflow=hidden;rotatable=0;points=[[0,0.5],[1,0.5]];portConstraint=eastwest;whiteSpace=wrap;html=1;fontSize=11;" vertex="1" parent="m3RcvuXCGORG72tY1Eil-73">
          <mxGeometry y="360" width="320" height="20" as="geometry" />
        </mxCell>
        <mxCell id="m3RcvuXCGORG72tY1Eil-114" value="+ serializeValue(Value): char" style="text;strokeColor=none;fillColor=none;align=left;verticalAlign=middle;spacingLeft=4;spacingRight=4;overflow=hidden;rotatable=0;points=[[0,0.5],[1,0.5]];portConstraint=eastwest;whiteSpace=wrap;html=1;fontSize=11;" vertex="1" parent="m3RcvuXCGORG72tY1Eil-73">
          <mxGeometry y="380" width="320" height="20" as="geometry" />
        </mxCell>
        <mxCell id="m3RcvuXCGORG72tY1Eil-118" value="+ serializePageDirectory(PageDirectory): char" style="text;strokeColor=none;fillColor=none;align=left;verticalAlign=middle;spacingLeft=4;spacingRight=4;overflow=hidden;rotatable=0;points=[[0,0.5],[1,0.5]];portConstraint=eastwest;whiteSpace=wrap;html=1;fontSize=11;" vertex="1" parent="m3RcvuXCGORG72tY1Eil-73">
          <mxGeometry y="400" width="320" height="20" as="geometry" />
        </mxCell>
        <mxCell id="m3RcvuXCGORG72tY1Eil-117" value="+ serializePageDirectories(PageDirectoryCache): char" style="text;strokeColor=none;fillColor=none;align=left;verticalAlign=middle;spacingLeft=4;spacingRight=4;overflow=hidden;rotatable=0;points=[[0,0.5],[1,0.5]];portConstraint=eastwest;whiteSpace=wrap;html=1;fontSize=11;" vertex="1" parent="m3RcvuXCGORG72tY1Eil-73">
          <mxGeometry y="420" width="320" height="20" as="geometry" />
        </mxCell>
        <mxCell id="m3RcvuXCGORG72tY1Eil-119" value="+ deserializeTableInfo(RM_TableData, char): void" style="text;strokeColor=none;fillColor=none;align=left;verticalAlign=middle;spacingLeft=4;spacingRight=4;overflow=hidden;rotatable=0;points=[[0,0.5],[1,0.5]];portConstraint=eastwest;whiteSpace=wrap;html=1;fontSize=11;" vertex="1" parent="m3RcvuXCGORG72tY1Eil-73">
          <mxGeometry y="440" width="320" height="20" as="geometry" />
        </mxCell>
        <mxCell id="m3RcvuXCGORG72tY1Eil-120" value="+ deserializeSchema(char): Schema" style="text;strokeColor=none;fillColor=none;align=left;verticalAlign=middle;spacingLeft=4;spacingRight=4;overflow=hidden;rotatable=0;points=[[0,0.5],[1,0.5]];portConstraint=eastwest;whiteSpace=wrap;html=1;fontSize=11;" vertex="1" parent="m3RcvuXCGORG72tY1Eil-73">
          <mxGeometry y="460" width="320" height="20" as="geometry" />
        </mxCell>
        <mxCell id="m3RcvuXCGORG72tY1Eil-121" value="+ deserializePageDirectories(char): PageDirectoryCache" style="text;strokeColor=none;fillColor=none;align=left;verticalAlign=middle;spacingLeft=4;spacingRight=4;overflow=hidden;rotatable=0;points=[[0,0.5],[1,0.5]];portConstraint=eastwest;whiteSpace=wrap;html=1;fontSize=11;" vertex="1" parent="m3RcvuXCGORG72tY1Eil-73">
          <mxGeometry y="480" width="320" height="20" as="geometry" />
        </mxCell>
        <mxCell id="m3RcvuXCGORG72tY1Eil-122" value="+ deserializeRecords(Schema, char, int): RecordNode" style="text;strokeColor=none;fillColor=none;align=left;verticalAlign=middle;spacingLeft=4;spacingRight=4;overflow=hidden;rotatable=0;points=[[0,0.5],[1,0.5]];portConstraint=eastwest;whiteSpace=wrap;html=1;fontSize=11;" vertex="1" parent="m3RcvuXCGORG72tY1Eil-73">
          <mxGeometry y="500" width="320" height="20" as="geometry" />
        </mxCell>
        <mxCell id="m3RcvuXCGORG72tY1Eil-124" value="+ substring(char, char, char): char" style="text;strokeColor=none;fillColor=none;align=left;verticalAlign=middle;spacingLeft=4;spacingRight=4;overflow=hidden;rotatable=0;points=[[0,0.5],[1,0.5]];portConstraint=eastwest;whiteSpace=wrap;html=1;fontSize=11;" vertex="1" parent="m3RcvuXCGORG72tY1Eil-73">
          <mxGeometry y="520" width="320" height="20" as="geometry" />
        </mxCell>
        <mxCell id="m3RcvuXCGORG72tY1Eil-123" value="+ parseAttrInfo(Schema, char): void" style="text;strokeColor=none;fillColor=none;align=left;verticalAlign=middle;spacingLeft=4;spacingRight=4;overflow=hidden;rotatable=0;points=[[0,0.5],[1,0.5]];portConstraint=eastwest;whiteSpace=wrap;html=1;fontSize=11;" vertex="1" parent="m3RcvuXCGORG72tY1Eil-73">
          <mxGeometry y="540" width="320" height="20" as="geometry" />
        </mxCell>
        <mxCell id="m3RcvuXCGORG72tY1Eil-153" value="+ parseKeyInfo(Schema, char): void" style="text;strokeColor=none;fillColor=none;align=left;verticalAlign=middle;spacingLeft=4;spacingRight=4;overflow=hidden;rotatable=0;points=[[0,0.5],[1,0.5]];portConstraint=eastwest;whiteSpace=wrap;html=1;fontSize=11;" vertex="1" parent="m3RcvuXCGORG72tY1Eil-73">
          <mxGeometry y="560" width="320" height="20" as="geometry" />
        </mxCell>
        <mxCell id="m3RcvuXCGORG72tY1Eil-154" value="+ parsePageDirectory(char): PageDirectory" style="text;strokeColor=none;fillColor=none;align=left;verticalAlign=middle;spacingLeft=4;spacingRight=4;overflow=hidden;rotatable=0;points=[[0,0.5],[1,0.5]];portConstraint=eastwest;whiteSpace=wrap;html=1;fontSize=11;" vertex="1" parent="m3RcvuXCGORG72tY1Eil-73">
          <mxGeometry y="580" width="320" height="20" as="geometry" />
        </mxCell>
        <mxCell id="m3RcvuXCGORG72tY1Eil-155" value="+ parseRecord(Schema, Record, char): void" style="text;strokeColor=none;fillColor=none;align=left;verticalAlign=middle;spacingLeft=4;spacingRight=4;overflow=hidden;rotatable=0;points=[[0,0.5],[1,0.5]];portConstraint=eastwest;whiteSpace=wrap;html=1;fontSize=11;" vertex="1" parent="m3RcvuXCGORG72tY1Eil-73">
          <mxGeometry y="600" width="320" height="20" as="geometry" />
        </mxCell>
        <mxCell id="m3RcvuXCGORG72tY1Eil-156" value="+ PageInfoToString(int, int, char): void" style="text;strokeColor=none;fillColor=none;align=left;verticalAlign=middle;spacingLeft=4;spacingRight=4;overflow=hidden;rotatable=0;points=[[0,0.5],[1,0.5]];portConstraint=eastwest;whiteSpace=wrap;html=1;fontSize=11;" vertex="1" parent="m3RcvuXCGORG72tY1Eil-73">
          <mxGeometry y="620" width="320" height="20" as="geometry" />
        </mxCell>
        <mxCell id="m3RcvuXCGORG72tY1Eil-157" style="edgeStyle=orthogonalEdgeStyle;rounded=0;orthogonalLoop=1;jettySize=auto;html=1;exitX=0;exitY=0.5;exitDx=0;exitDy=0;entryX=1;entryY=0.5;entryDx=0;entryDy=0;" edge="1" parent="1" source="LyubAiNVPV_jIJJPJGrE-41" target="m3RcvuXCGORG72tY1Eil-114">
          <mxGeometry relative="1" as="geometry">
            <Array as="points">
              <mxPoint x="840" y="670" />
              <mxPoint x="840" y="970" />
            </Array>
          </mxGeometry>
        </mxCell>
        <mxCell id="m3RcvuXCGORG72tY1Eil-158" style="edgeStyle=orthogonalEdgeStyle;rounded=0;orthogonalLoop=1;jettySize=auto;html=1;exitX=0;exitY=0.5;exitDx=0;exitDy=0;entryX=1;entryY=0.5;entryDx=0;entryDy=0;" edge="1" parent="1" source="LyubAiNVPV_jIJJPJGrE-41" target="m3RcvuXCGORG72tY1Eil-116">
          <mxGeometry relative="1" as="geometry">
            <Array as="points">
              <mxPoint x="840" y="670" />
              <mxPoint x="840" y="850" />
            </Array>
          </mxGeometry>
        </mxCell>
        <mxCell id="m3RcvuXCGORG72tY1Eil-170" style="edgeStyle=orthogonalEdgeStyle;rounded=0;orthogonalLoop=1;jettySize=auto;html=1;exitX=0.001;exitY=0.038;exitDx=0;exitDy=0;entryX=1;entryY=0.048;entryDx=0;entryDy=0;exitPerimeter=0;entryPerimeter=0;" edge="1" parent="1" source="m3RcvuXCGORG72tY1Eil-12">
          <mxGeometry relative="1" as="geometry">
            <mxPoint x="480" y="58" as="sourcePoint" />
            <mxPoint x="420" y="58" as="targetPoint" />
            <Array as="points" />
          </mxGeometry>
        </mxCell>
        <mxCell id="m3RcvuXCGORG72tY1Eil-172" style="edgeStyle=orthogonalEdgeStyle;rounded=0;orthogonalLoop=1;jettySize=auto;html=1;exitX=0.001;exitY=0.048;exitDx=0;exitDy=0;exitPerimeter=0;entryX=0.999;entryY=0.171;entryDx=0;entryDy=0;entryPerimeter=0;" edge="1" parent="1">
          <mxGeometry relative="1" as="geometry">
            <mxPoint x="480" y="58" as="sourcePoint" />
            <mxPoint x="420" y="502" as="targetPoint" />
            <Array as="points">
              <mxPoint x="450" y="58" />
              <mxPoint x="450" y="502" />
            </Array>
          </mxGeometry>
        </mxCell>
        <mxCell id="m3RcvuXCGORG72tY1Eil-174" style="edgeStyle=orthogonalEdgeStyle;rounded=0;orthogonalLoop=1;jettySize=auto;html=1;exitX=0.001;exitY=0.048;exitDx=0;exitDy=0;exitPerimeter=0;entryX=1;entryY=0.048;entryDx=0;entryDy=0;entryPerimeter=0;" edge="1" parent="1" target="2W-PBRkv51gdTkOP3Wb2-12">
          <mxGeometry relative="1" as="geometry">
            <mxPoint x="480" y="58" as="sourcePoint" />
            <mxPoint x="420" y="502" as="targetPoint" />
            <Array as="points">
              <mxPoint x="450" y="58" />
              <mxPoint x="450" y="679" />
            </Array>
          </mxGeometry>
        </mxCell>
        <mxCell id="m3RcvuXCGORG72tY1Eil-175" style="edgeStyle=orthogonalEdgeStyle;rounded=0;orthogonalLoop=1;jettySize=auto;html=1;exitX=0.001;exitY=0.048;exitDx=0;exitDy=0;exitPerimeter=0;entryX=1.003;entryY=0.154;entryDx=0;entryDy=0;entryPerimeter=0;" edge="1" parent="1" target="2W-PBRkv51gdTkOP3Wb2-27">
          <mxGeometry relative="1" as="geometry">
            <mxPoint x="480" y="58" as="sourcePoint" />
            <mxPoint x="420" y="679" as="targetPoint" />
            <Array as="points">
              <mxPoint x="450" y="58" />
              <mxPoint x="450" y="1121" />
            </Array>
          </mxGeometry>
        </mxCell>
        <mxCell id="m3RcvuXCGORG72tY1Eil-176" style="edgeStyle=orthogonalEdgeStyle;rounded=0;orthogonalLoop=1;jettySize=auto;html=1;exitX=0.001;exitY=0.038;exitDx=0;exitDy=0;entryX=-0.002;entryY=0.019;entryDx=0;entryDy=0;exitPerimeter=0;entryPerimeter=0;" edge="1" parent="1" target="m3RcvuXCGORG72tY1Eil-73">
          <mxGeometry relative="1" as="geometry">
            <mxPoint x="500" y="58" as="sourcePoint" />
            <mxPoint x="420" y="58" as="targetPoint" />
            <Array as="points">
              <mxPoint x="480" y="58" />
              <mxPoint x="480" y="592" />
            </Array>
          </mxGeometry>
        </mxCell>
      </root>
    </mxGraphModel>
  </diagram>
</mxfile>
